<?xml version="1.0" encoding="iso-8859-1"?>
<!-- Generator: Adobe Illustrator 18.0.0, SVG Export Plug-In . SVG Version: 6.00 Build 0)  -->
<!DOCTYPE svg PUBLIC "-//W3C//DTD SVG 1.1//EN" "http://www.w3.org/Graphics/SVG/1.1/DTD/svg11.dtd">
<svg version="1.1" id="Capa_1" xmlns="http://www.w3.org/2000/svg" xmlns:xlink="http://www.w3.org/1999/xlink" x="0px" y="0px"
	 viewBox="0 0 454.567 454.567" style="enable-background:new 0 0 454.567 454.567;" xml:space="preserve">
<g>
	<path d="M185.688,168.334c1.117,0.59,2.315,0.87,3.496,0.87c2.691,0,5.294-1.453,6.639-3.998c1.935-3.663,0.534-8.2-3.129-10.135
		c-24.502-12.944-39.723-38.142-39.723-65.759c0-19.492,7.521-37.923,21.176-51.899c13.633-13.953,31.837-21.902,51.302-22.385
		c1.222-0.037,2.401-0.038,3.713,0.001c19.418,0.481,37.62,8.431,51.254,22.384c13.658,13.978,21.18,32.409,21.18,51.899
		c0,27.616-15.221,52.81-39.722,65.749c-3.663,1.934-5.064,6.471-3.13,10.134c1.935,3.662,6.473,5.064,10.134,3.129
		c29.434-15.543,47.718-45.819,47.718-79.012c0-23.432-9.039-45.586-25.451-62.382c-16.382-16.766-38.263-26.317-61.568-26.895
		c-1.53-0.046-3.101-0.045-4.541-0.001c-23.353,0.579-45.235,10.13-61.616,26.896c-16.41,16.795-25.447,38.95-25.447,62.382
		C137.972,122.506,156.256,152.785,185.688,168.334z"/>
	<path d="M290.541,89.312c0-31.061-23.149-57.956-53.849-62.56c-6.176-0.926-12.641-0.926-18.816,0
		c-30.699,4.604-53.85,31.499-53.85,62.56c0,20.625,10.131,40.019,27.101,51.879c3.397,2.373,8.071,1.543,10.444-1.851
		c2.373-3.395,1.544-8.071-1.851-10.444c-12.958-9.056-20.694-23.854-20.694-39.584c0-23.696,17.658-44.214,41.074-47.726
		c4.707-0.706,9.66-0.706,14.367,0c23.416,3.512,41.073,24.029,41.073,47.726c0,15.73-7.736,30.528-20.694,39.584
		c-3.395,2.373-4.224,7.049-1.851,10.444c1.459,2.087,3.787,3.204,6.154,3.204c1.483,0,2.981-0.439,4.29-1.353
		C280.41,129.33,290.541,109.936,290.541,89.312z"/>
	<path d="M294.615,406.678h-9.219l-49.367-281.214c16.304-3.946,28.454-18.653,28.454-36.153c0-20.513-16.688-37.201-37.201-37.201
		s-37.201,16.688-37.201,37.201c0,17.5,12.15,32.207,28.454,36.153l-49.367,281.214h-9.219c-4.143,0-7.5,3.358-7.5,7.5v32.889
		c0,4.142,3.357,7.5,7.5,7.5h134.666c4.143,0,7.5-3.358,7.5-7.5v-32.889C302.115,410.036,298.758,406.678,294.615,406.678z
		 M205.081,89.311c0-12.242,9.959-22.201,22.201-22.201s22.201,9.959,22.201,22.201s-9.959,22.201-22.201,22.201
		S205.081,101.553,205.081,89.311z M264.116,372.211h-73.668l36.834-209.823L264.116,372.211z M187.815,387.211h78.935l3.417,19.467
		h-85.77L187.815,387.211z M287.115,439.567H167.449v-17.889h119.666V439.567z"/>
</g>
<g>
</g>
<g>
</g>
<g>
</g>
<g>
</g>
<g>
</g>
<g>
</g>
<g>
</g>
<g>
</g>
<g>
</g>
<g>
</g>
<g>
</g>
<g>
</g>
<g>
</g>
<g>
</g>
<g>
</g>
</svg>
