<?xml version="1.0" encoding="iso-8859-1"?>
<!-- Generator: Adobe Illustrator 18.0.0, SVG Export Plug-In . SVG Version: 6.00 Build 0)  -->
<!DOCTYPE svg PUBLIC "-//W3C//DTD SVG 1.1//EN" "http://www.w3.org/Graphics/SVG/1.1/DTD/svg11.dtd">
<svg version="1.1" id="Capa_1" xmlns="http://www.w3.org/2000/svg" xmlns:xlink="http://www.w3.org/1999/xlink" x="0px" y="0px"
	 viewBox="0 0 462 462" style="enable-background:new 0 0 462 462;" xml:space="preserve">
<g>
	<path d="M338.827,79.986V34c0-18.748-15.253-34-34.001-34c-18.747,0-33.999,15.252-33.999,34v44H134.946
		c-19.863,0-36.023,16.16-36.023,36.023v311.953c0,19.863,16.16,36.023,36.023,36.023h192.107c19.863,0,36.023-16.16,36.023-36.023
		V114.023C363.077,98.283,352.925,84.877,338.827,79.986z M304.826,15L304.826,15c10.14,0,18.425,7.989,18.95,18h-37.898
		C286.403,22.989,294.687,15,304.826,15z M285.827,48h38v30h-38V48z M348.077,425.977c0,11.592-9.431,21.023-21.023,21.023H134.946
		c-11.593,0-21.023-9.431-21.023-21.023V114.023c0-11.592,9.431-21.023,21.023-21.023h143.381h48.727
		c11.593,0,21.023,9.431,21.023,21.023V425.977z"/>
	<path d="M320.885,112.692h-179.77c-4.143,0-7.5,3.358-7.5,7.5v86.936c0,4.142,3.357,7.5,7.5,7.5h179.77c4.143,0,7.5-3.358,7.5-7.5
		v-86.936C328.385,116.05,325.027,112.692,320.885,112.692z M294.318,127.692h7.497l-41.57,71.936h-7.497L294.318,127.692z
		 M235.423,199.628h-72.961l41.57-71.936h72.961L235.423,199.628z M186.707,127.692l-38.091,65.917v-65.917H186.707z
		 M277.571,199.628l35.814-61.977v61.977H277.571z"/>
	<path d="M161.484,228.83c-15.367,0-27.869,12.502-27.869,27.869s12.502,27.869,27.869,27.869s27.869-12.502,27.869-27.869
		S176.852,228.83,161.484,228.83z M161.484,269.569c-7.096,0-12.869-5.773-12.869-12.869c0-7.096,5.773-12.869,12.869-12.869
		s12.869,5.773,12.869,12.869C174.354,263.796,168.58,269.569,161.484,269.569z"/>
	<path d="M300.516,228.83c-15.367,0-27.87,12.502-27.87,27.869s12.503,27.869,27.87,27.869s27.869-12.502,27.869-27.869
		S315.883,228.83,300.516,228.83z M300.516,269.569c-7.097,0-12.87-5.773-12.87-12.869c0-7.096,5.773-12.869,12.87-12.869
		c7.096,0,12.869,5.773,12.869,12.869C313.385,263.796,307.611,269.569,300.516,269.569z"/>
	<path d="M231,228.83c-15.367,0-27.869,12.502-27.869,27.869s12.502,27.869,27.869,27.869s27.869-12.502,27.869-27.869
		S246.367,228.83,231,228.83z M231,269.569c-7.096,0-12.869-5.773-12.869-12.869c0-7.096,5.773-12.869,12.869-12.869
		s12.869,5.773,12.869,12.869C243.869,263.796,238.096,269.569,231,269.569z"/>
	<path d="M161.484,371.569c-15.367,0-27.869,12.502-27.869,27.869s12.502,27.869,27.869,27.869s27.869-12.502,27.869-27.869
		S176.852,371.569,161.484,371.569z M161.484,412.308c-7.096,0-12.869-5.773-12.869-12.869s5.773-12.869,12.869-12.869
		s12.869,5.773,12.869,12.869S168.58,412.308,161.484,412.308z"/>
	<path d="M300.516,371.569c-15.367,0-27.87,12.502-27.87,27.869s12.503,27.869,27.87,27.869s27.869-12.502,27.869-27.869
		S315.883,371.569,300.516,371.569z M300.516,412.308c-7.097,0-12.87-5.773-12.87-12.869s5.773-12.869,12.87-12.869
		c7.096,0,12.869,5.773,12.869,12.869S307.611,412.308,300.516,412.308z"/>
	<path d="M231,371.569c-15.367,0-27.869,12.502-27.869,27.869s12.502,27.869,27.869,27.869s27.869-12.502,27.869-27.869
		S246.367,371.569,231,371.569z M231,412.308c-7.096,0-12.869-5.773-12.869-12.869s5.773-12.869,12.869-12.869
		s12.869,5.773,12.869,12.869S238.096,412.308,231,412.308z"/>
	<path d="M161.484,300.2c-15.367,0-27.869,12.502-27.869,27.869s12.502,27.869,27.869,27.869s27.869-12.502,27.869-27.869
		S176.852,300.2,161.484,300.2z M161.484,340.938c-7.096,0-12.869-5.773-12.869-12.869c0-7.096,5.773-12.869,12.869-12.869
		s12.869,5.773,12.869,12.869C174.354,335.165,168.58,340.938,161.484,340.938z"/>
	<path d="M300.516,300.2c-15.367,0-27.87,12.502-27.87,27.869s12.503,27.869,27.87,27.869s27.869-12.502,27.869-27.869
		S315.883,300.2,300.516,300.2z M300.516,340.938c-7.097,0-12.87-5.773-12.87-12.869c0-7.096,5.773-12.869,12.87-12.869
		c7.096,0,12.869,5.773,12.869,12.869C313.385,335.165,307.611,340.938,300.516,340.938z"/>
	<path d="M231,300.2c-15.367,0-27.869,12.502-27.869,27.869s12.502,27.869,27.869,27.869s27.869-12.502,27.869-27.869
		S246.367,300.2,231,300.2z M231,340.938c-7.096,0-12.869-5.773-12.869-12.869c0-7.096,5.773-12.869,12.869-12.869
		s12.869,5.773,12.869,12.869C243.869,335.165,238.096,340.938,231,340.938z"/>
</g>
<g>
</g>
<g>
</g>
<g>
</g>
<g>
</g>
<g>
</g>
<g>
</g>
<g>
</g>
<g>
</g>
<g>
</g>
<g>
</g>
<g>
</g>
<g>
</g>
<g>
</g>
<g>
</g>
<g>
</g>
</svg>
