<?xml version="1.0" encoding="iso-8859-1"?>
<!-- Generator: Adobe Illustrator 18.0.0, SVG Export Plug-In . SVG Version: 6.00 Build 0)  -->
<!DOCTYPE svg PUBLIC "-//W3C//DTD SVG 1.1//EN" "http://www.w3.org/Graphics/SVG/1.1/DTD/svg11.dtd">
<svg version="1.1" id="Capa_1" xmlns="http://www.w3.org/2000/svg" xmlns:xlink="http://www.w3.org/1999/xlink" x="0px" y="0px"
	 viewBox="0 0 413.98 413.98" style="enable-background:new 0 0 413.98 413.98;" xml:space="preserve">
<g>
	<path d="M392.89,34.499H21.09C9.461,34.499,0,43.959,0,55.589v233.807c0,11.629,9.461,21.09,21.09,21.09h146.694l-11.151,53.997
		h-17.515c-4.143,0-7.5,3.358-7.5,7.5s3.357,7.5,7.5,7.5h135.743c4.143,0,7.5-3.358,7.5-7.5s-3.357-7.5-7.5-7.5h-17.515
		l-11.151-53.997H392.89c11.63,0,21.091-9.461,21.091-21.09V55.589C413.98,43.959,404.52,34.499,392.89,34.499z M242.03,364.482
		h-70.081l11.151-53.997h47.778L242.03,364.482z M398.98,289.396c0,3.358-2.732,6.09-6.091,6.09H21.09
		c-3.358,0-6.09-2.732-6.09-6.09V55.589c0-3.358,2.731-6.09,6.09-6.09h371.8c3.358,0,6.091,2.732,6.091,6.09V289.396z"/>
	<path d="M381.48,59.499H32.5c-4.143,0-7.5,3.358-7.5,7.5v210.987c0,4.142,3.357,7.5,7.5,7.5h348.98c4.143,0,7.5-3.358,7.5-7.5
		V66.999C388.98,62.856,385.623,59.499,381.48,59.499z M373.98,270.485H40V74.499h333.98V270.485z"/>
	<path d="M74.538,239.473l13.979,15.169c1.467,1.591,3.482,2.417,5.518,2.417c1.465,0,2.939-0.428,4.226-1.306l55.514-37.896
		c2.568-1.753,3.789-4.91,3.066-7.936l-7.574-31.734c24.878-18.333,64.785-35.28,95.254-40.451l17.575,27.487
		c1.674,2.62,4.794,3.935,7.839,3.304l65.819-13.63c3.645-0.755,6.185-4.068,5.967-7.783l-1.207-20.592
		c-0.109-1.862-0.909-3.618-2.242-4.922l-32.236-31.536c-1.679-1.642-4.026-2.406-6.351-2.057l-21.304,3.174
		c-62.759,9.351-135.817,40.377-186.127,79.042l-17.078,13.125c-1.861,1.431-2.945,3.65-2.93,5.998l0.307,45.096
		C72.565,236.307,73.273,238.102,74.538,239.473z M101.395,182.117c48.437-37.226,118.775-67.097,179.197-76.1l17.617-2.625
		l27.5,26.902l0.658,11.229l-54.417,11.269l-17.418-27.241c-1.57-2.456-4.427-3.775-7.308-3.395
		c-35.364,4.707-83.104,24.981-111.046,47.158c-2.283,1.812-3.31,4.781-2.633,7.616l7.506,31.451l-45.896,31.331l-7.622-8.271
		l-0.262-38.469L101.395,182.117z"/>
</g>
<g>
</g>
<g>
</g>
<g>
</g>
<g>
</g>
<g>
</g>
<g>
</g>
<g>
</g>
<g>
</g>
<g>
</g>
<g>
</g>
<g>
</g>
<g>
</g>
<g>
</g>
<g>
</g>
<g>
</g>
</svg>
