<?xml version="1.0" encoding="iso-8859-1"?>
<!-- Generator: Adobe Illustrator 18.0.0, SVG Export Plug-In . SVG Version: 6.00 Build 0)  -->
<!DOCTYPE svg PUBLIC "-//W3C//DTD SVG 1.1//EN" "http://www.w3.org/Graphics/SVG/1.1/DTD/svg11.dtd">
<svg version="1.1" id="Capa_1" xmlns="http://www.w3.org/2000/svg" xmlns:xlink="http://www.w3.org/1999/xlink" x="0px" y="0px"
	 viewBox="0 0 448 448" style="enable-background:new 0 0 448 448;" xml:space="preserve">
<g>
	<path d="M195.708,94h56.585c4.142,0,7.5-3.358,7.5-7.5s-3.358-7.5-7.5-7.5h-56.585c-4.142,0-7.5,3.358-7.5,7.5
		S191.565,94,195.708,94z"/>
	<path d="M136.426,127.027h175.149c4.142,0,7.5-3.358,7.5-7.5s-3.358-7.5-7.5-7.5H136.426c-4.142,0-7.5,3.358-7.5,7.5
		S132.284,127.027,136.426,127.027z"/>
	<path d="M136.426,160.053h175.149c4.142,0,7.5-3.358,7.5-7.5s-3.358-7.5-7.5-7.5H136.426c-4.142,0-7.5,3.358-7.5,7.5
		S132.284,160.053,136.426,160.053z"/>
	<path d="M136.426,193.08h175.149c4.142,0,7.5-3.358,7.5-7.5s-3.358-7.5-7.5-7.5H136.426c-4.142,0-7.5,3.358-7.5,7.5
		S132.284,193.08,136.426,193.08z"/>
	<path d="M136.426,226.107h175.149c4.142,0,7.5-3.358,7.5-7.5s-3.358-7.5-7.5-7.5H136.426c-4.142,0-7.5,3.358-7.5,7.5
		S132.284,226.107,136.426,226.107z"/>
	<path d="M136.426,259.133h175.149c4.142,0,7.5-3.358,7.5-7.5s-3.358-7.5-7.5-7.5H136.426c-4.142,0-7.5,3.358-7.5,7.5
		S132.284,259.133,136.426,259.133z"/>
	<path d="M136.426,292.16h175.149c4.142,0,7.5-3.358,7.5-7.5s-3.358-7.5-7.5-7.5H136.426c-4.142,0-7.5,3.358-7.5,7.5
		S132.284,292.16,136.426,292.16z"/>
	<path d="M136.426,325.187h175.149c4.142,0,7.5-3.358,7.5-7.5s-3.358-7.5-7.5-7.5H136.426c-4.142,0-7.5,3.358-7.5,7.5
		S132.284,325.187,136.426,325.187z"/>
	<path d="M356.719,0H91.281C76.514,0,64.5,12.014,64.5,26.781v394.438C64.5,435.986,76.514,448,91.281,448h265.438
		c14.767,0,26.781-12.014,26.781-26.781V26.781C383.5,12.014,371.486,0,356.719,0z M368.5,421.219
		c0,6.496-5.285,11.781-11.781,11.781H91.281c-6.496,0-11.781-5.285-11.781-11.781V26.781C79.5,20.285,84.785,15,91.281,15h265.438
		c6.496,0,11.781,5.285,11.781,11.781V421.219z"/>
	<path d="M349,27H99c-4.142,0-7.5,3.358-7.5,7.5v379c0,4.142,3.358,7.5,7.5,7.5h250c4.142,0,7.5-3.358,7.5-7.5v-379
		C356.5,30.358,353.142,27,349,27z M341.5,42v325h-235V42H341.5z M106.5,382h110v24h-110V382z M231.5,406v-24h110v24H231.5z"/>
</g>
<g>
</g>
<g>
</g>
<g>
</g>
<g>
</g>
<g>
</g>
<g>
</g>
<g>
</g>
<g>
</g>
<g>
</g>
<g>
</g>
<g>
</g>
<g>
</g>
<g>
</g>
<g>
</g>
<g>
</g>
</svg>
