<?xml version="1.0" encoding="iso-8859-1"?>
<!-- Generator: Adobe Illustrator 18.0.0, SVG Export Plug-In . SVG Version: 6.00 Build 0)  -->
<!DOCTYPE svg PUBLIC "-//W3C//DTD SVG 1.1//EN" "http://www.w3.org/Graphics/SVG/1.1/DTD/svg11.dtd">
<svg version="1.1" id="Capa_1" xmlns="http://www.w3.org/2000/svg" xmlns:xlink="http://www.w3.org/1999/xlink" x="0px" y="0px"
	 viewBox="0 0 396.933 396.933" style="enable-background:new 0 0 396.933 396.933;" xml:space="preserve">
<path d="M387.677,121.227c0-47.723-38.825-86.548-86.548-86.548c-12.21,0-24.316,2.597-35.393,7.556
	C246.159,15.668,215.386,0,182.143,0c-47.808,0-89.004,32.42-100.63,78.09c-2.401-0.27-4.811-0.405-7.211-0.405
	c-35.866,0-65.046,29.179-65.046,65.045s29.18,65.045,65.046,65.045h80.518l-86.564,86.564c-2.929,2.929-2.929,7.678,0,10.606
	l89.79,89.79c1.407,1.407,3.314,2.197,5.304,2.197s3.896-0.79,5.304-2.197l143.05-143.05c2.929-2.929,2.929-7.678,0-10.606
	L278.4,207.775h22.729C348.852,207.775,387.677,168.95,387.677,121.227z M24.265,143.697c-0.532-28.036,22.119-51.013,50.037-51.013
	c3.776,0,7.587,0.438,11.325,1.304c0.014,0.003,0.029,0.004,0.043,0.008c0.016,0.003,0.031,0.009,0.047,0.012
	c0.604,0.137,14.883,3.534,20.753,18.796c1.146,2.98,3.988,4.81,7.002,4.81c1.128,0,2.281-0.256,3.378-0.806
	c3.507-1.756,4.932-6.048,3.5-9.699c-5.797-14.771-16.928-21.977-24.289-25.272C105.997,42.755,141.229,15,182.143,15
	c5.889,0,11.687,0.575,17.329,1.689c36.405,7.187,64.244,37.166,69.27,73.932c0.102,0.747,0.191,1.493,0.265,2.238
	c0.387,3.868,3.647,6.754,7.454,6.754c0.249,0,0.502-0.012,0.755-0.038c4.122-0.412,7.129-4.087,6.717-8.209
	c-1.406-14.055-6.896-27.975-10.607-36.07c8.753-3.686,18.236-5.618,27.803-5.618c39.686,0,71.93,32.479,71.544,72.254
	c-0.382,39.389-33.066,70.843-72.457,70.843H75.141C47.737,192.775,24.785,171.096,24.265,143.697z M155.358,307.632l0.381,63.584
	l-63.964-63.964L155.358,307.632z M170.359,307.721l47.066,0.281c0.016,0,0.03,0,0.045,0c1.988,0,3.896-0.79,5.304-2.197
	c1.417-1.417,2.208-3.343,2.196-5.348l-0.281-47.069l63.717,0.381L170.741,371.435L170.359,307.721z M209.415,207.775l0.51,85.182
	L91.559,292.25l84.475-84.474H209.415z M288.179,238.768l-63.58-0.38l-0.183-30.612h32.771L288.179,238.768z"/>
<g>
</g>
<g>
</g>
<g>
</g>
<g>
</g>
<g>
</g>
<g>
</g>
<g>
</g>
<g>
</g>
<g>
</g>
<g>
</g>
<g>
</g>
<g>
</g>
<g>
</g>
<g>
</g>
<g>
</g>
</svg>
