<?xml version="1.0" encoding="iso-8859-1"?>
<!-- Generator: Adobe Illustrator 18.0.0, SVG Export Plug-In . SVG Version: 6.00 Build 0)  -->
<!DOCTYPE svg PUBLIC "-//W3C//DTD SVG 1.1//EN" "http://www.w3.org/Graphics/SVG/1.1/DTD/svg11.dtd">
<svg version="1.1" id="Capa_1" xmlns="http://www.w3.org/2000/svg" xmlns:xlink="http://www.w3.org/1999/xlink" x="0px" y="0px"
	 viewBox="0 0 405.385 405.385" style="enable-background:new 0 0 405.385 405.385;" xml:space="preserve">
<path d="M368.281,144.748v-23.941c0-60.297-49.056-109.353-109.353-109.353H146.444c-60.292,0-109.343,49.051-109.343,109.343
	v23.952C15.858,149.778,0,168.89,0,191.649v50.581c0,26.581,21.625,48.206,48.206,48.206h7.488
	c3.673,6.608,10.72,11.094,18.801,11.094c11.855,0,21.501-9.646,21.501-21.501V153.85c0-11.856-9.646-21.501-21.501-21.501
	c-8.081,0-15.128,4.486-18.801,11.094h-3.593v-22.646c0-49.496,38.315-90.21,86.843-94.045v5.232
	c0,12.662,10.301,22.964,22.963,22.964h81.558c12.662,0,22.964-10.302,22.964-22.964v-5.233
	c48.533,3.835,86.853,44.553,86.853,94.055v22.636h-3.59c-3.673-6.608-10.72-11.094-18.801-11.094
	c-11.855,0-21.501,9.646-21.501,21.501v126.178c0,11.856,9.646,21.501,21.501,21.501c8.081,0,15.128-4.486,18.801-11.094h3.266
	c-3.254,35.679-31.831,64.132-67.563,67.201c-3.4-11.936-14.394-20.705-27.407-20.705h-14.899
	c-15.715,0-28.499,12.785-28.499,28.499s12.784,28.499,28.499,28.499h14.899c13.207,0,24.341-9.031,27.559-21.241
	c44.36-3.237,79.823-39.023,82.558-83.518c21.333-4.965,37.28-24.12,37.28-46.942v-50.581
	C405.385,168.89,389.526,149.777,368.281,144.748z M15,242.23v-50.581c0-18.31,14.896-33.206,33.206-33.206h4.788v116.993h-4.788
	C29.896,275.436,15,260.54,15,242.23z M67.993,153.85c0-3.585,2.917-6.501,6.501-6.501c3.584,0,6.501,2.917,6.501,6.501v126.178
	c0,3.585-2.917,6.501-6.501,6.501c-3.585,0-6.501-2.917-6.501-6.501V153.85z M214.388,26.454l-7.798,13.494h-7.177l7.798-13.494
	H214.388z M153.944,31.984v-5.531h35.942l-7.798,13.494h-20.181C157.516,39.948,153.944,36.375,153.944,31.984z M251.429,31.984
	c0,4.391-3.572,7.964-7.964,7.964h-19.55l7.798-13.494h19.716V31.984z M229.589,365.432c0-7.443,6.056-13.499,13.499-13.499h7.399
	v26.998h-7.399C235.645,378.931,229.589,372.875,229.589,365.432z M265.487,376.648v-22.432c3.614,2.425,5.999,6.546,5.999,11.216
	S269.102,374.224,265.487,376.648z M337.392,280.029c0,3.585-2.917,6.501-6.502,6.501s-6.501-2.917-6.501-6.501V153.85
	c0-3.585,2.916-6.501,6.501-6.501s6.502,2.917,6.502,6.501V280.029z M390.385,242.23c0,18.31-14.896,33.206-33.206,33.206h-4.787
	V158.443h4.787c18.31,0,33.206,14.896,33.206,33.206V242.23z"/>
<g>
</g>
<g>
</g>
<g>
</g>
<g>
</g>
<g>
</g>
<g>
</g>
<g>
</g>
<g>
</g>
<g>
</g>
<g>
</g>
<g>
</g>
<g>
</g>
<g>
</g>
<g>
</g>
<g>
</g>
</svg>
