<?xml version="1.0" encoding="iso-8859-1"?>
<!-- Generator: Adobe Illustrator 18.0.0, SVG Export Plug-In . SVG Version: 6.00 Build 0)  -->
<!DOCTYPE svg PUBLIC "-//W3C//DTD SVG 1.1//EN" "http://www.w3.org/Graphics/SVG/1.1/DTD/svg11.dtd">
<svg version="1.1" id="Capa_1" xmlns="http://www.w3.org/2000/svg" xmlns:xlink="http://www.w3.org/1999/xlink" x="0px" y="0px"
	 viewBox="0 0 419.595 419.595" style="enable-background:new 0 0 419.595 419.595;" xml:space="preserve">
<g>
	<path d="M393.872,273.275l-115.151-87.875v-31.242c0-37.927-15.166-74.607-41.608-100.634
		c-26.219-25.817-60.932-40.036-97.742-40.036h-1.065C62.043,14.06,0,77.213,0,154.269c0,46.047,9.125,90.809,27.123,133.042
		c17.948,42.117,43.811,79.595,76.868,111.394c4.932,4.745,11.572,7.403,18.394,7.403c0.431,0,0.863-0.01,1.296-0.032
		c7.271-0.36,14.147-3.743,18.869-9.284c9.063-10.642,8.232-26.611-1.889-36.356C112.792,333.61,90.991,302,75.862,266.482
		C60.692,230.865,53,193.11,53,154.269c0-48.043,38.443-87.421,85.641-87.78h0.72c23.069,0,44.753,8.979,61.059,25.285
		c13.898,13.891,22.659,32.742,24.784,52.787l-3.837-2.928c-19.52-14.896-44.561-20.868-68.704-16.384
		c-24.142,4.484-45.368,19.05-58.237,39.963c-12.869,20.912-16.306,46.426-9.43,69.998c6.877,23.572,23.493,43.235,45.588,53.948
		l195.259,94.669c9.204,4.462,18.945,6.593,28.546,6.593c21.974,0,43.198-11.166,55.467-31.102
		C427.482,330.672,420.612,293.682,393.872,273.275z M211.024,81.165c-19.138-19.137-44.588-29.677-71.664-29.677h-0.776
		C83.122,51.91,38,98.017,38,154.269c0,40.874,8.096,80.605,24.063,118.092c15.922,37.383,38.867,70.652,68.195,98.881
		c4.421,4.256,4.804,11.207,0.874,15.822c-2.079,2.439-4.989,3.871-8.193,4.029c-3.206,0.157-6.238-0.978-8.549-3.2
		C82.793,357.5,58.075,321.681,40.922,281.43C23.722,241.067,15,198.284,15,154.269c0-68.846,55.364-125.271,123.36-125.78h1.01
		c32.848,0,63.822,12.687,87.22,35.725c23.597,23.227,37.131,56.01,37.131,89.945v19.795l-23-17.552v-2.333
		C240.721,126.601,229.896,100.028,211.024,81.165z M397.079,351.457c-13.574,22.059-41.388,30.173-64.692,18.873l-195.26-94.669
		c-18.287-8.867-32.04-25.141-37.731-44.651s-2.848-40.627,7.805-57.937c10.651-17.309,28.22-29.364,48.201-33.076
		c4.355-0.809,8.743-1.207,13.114-1.207c15.683,0,31.115,5.125,43.751,14.768L384.772,285.2
		C405.363,300.914,410.654,329.397,397.079,351.457z"/>
	<path d="M372.095,301.813L199.589,170.17c-11.638-8.882-25.974-12.302-40.371-9.627c-14.394,2.674-26.546,11.013-34.221,23.482
		c-7.673,12.469-9.64,27.076-5.54,41.131c4.101,14.056,13.614,25.313,26.787,31.7l195.26,94.669
		c4.139,2.007,8.519,2.965,12.836,2.965c9.881,0,19.426-5.021,24.941-13.986v0C387.209,327.623,384.119,310.989,372.095,301.813z
		 M366.506,332.643C366.506,332.643,366.506,332.643,366.506,332.643c-3.872,6.293-11.806,8.61-18.458,5.385l-195.26-94.669
		c-9.31-4.514-16.033-12.47-18.931-22.404c-2.898-9.933-1.508-20.257,3.915-29.068c5.423-8.813,14.013-14.707,24.186-16.596
		c2.259-0.42,4.515-0.627,6.749-0.627c7.829,0,15.383,2.546,21.782,7.43l172.506,131.644
		C368.87,318.221,370.38,326.349,366.506,332.643z"/>
	<path d="M177.811,198.707c-3.546-2.708-7.679-3.681-12.036-2.87c-4.415,0.82-7.846,3.173-10.197,6.991
		c-2.261,3.668-2.865,8.145-1.657,12.278c1.257,4.31,3.943,7.489,7.984,9.448c2.214,1.073,4.528,1.588,6.794,1.588
		c5.098,0,9.949-2.605,12.849-7.318C185.736,212.017,184.165,203.556,177.811,198.707z"/>
</g>
<g>
</g>
<g>
</g>
<g>
</g>
<g>
</g>
<g>
</g>
<g>
</g>
<g>
</g>
<g>
</g>
<g>
</g>
<g>
</g>
<g>
</g>
<g>
</g>
<g>
</g>
<g>
</g>
<g>
</g>
</svg>
