<?xml version="1.0" encoding="iso-8859-1"?>
<!-- Generator: Adobe Illustrator 18.0.0, SVG Export Plug-In . SVG Version: 6.00 Build 0)  -->
<!DOCTYPE svg PUBLIC "-//W3C//DTD SVG 1.1//EN" "http://www.w3.org/Graphics/SVG/1.1/DTD/svg11.dtd">
<svg version="1.1" id="Capa_1" xmlns="http://www.w3.org/2000/svg" xmlns:xlink="http://www.w3.org/1999/xlink" x="0px" y="0px"
	 viewBox="0 0 468.528 468.528" style="enable-background:new 0 0 468.528 468.528;" xml:space="preserve">
<g>
	<path d="M51.077,126.677h116.65c4.143,0,7.5-3.358,7.5-7.5s-3.357-7.5-7.5-7.5H51.077c-4.143,0-7.5,3.358-7.5,7.5
		S46.935,126.677,51.077,126.677z"/>
	<path d="M51.077,157.844h116.65c4.143,0,7.5-3.358,7.5-7.5s-3.357-7.5-7.5-7.5H51.077c-4.143,0-7.5,3.358-7.5,7.5
		S46.935,157.844,51.077,157.844z"/>
	<path d="M51.077,189.011h116.65c4.143,0,7.5-3.358,7.5-7.5s-3.357-7.5-7.5-7.5H51.077c-4.143,0-7.5,3.358-7.5,7.5
		S46.935,189.011,51.077,189.011z"/>
	<path d="M461.028,363.855h-20.267V126.715c0-15.23-12.391-27.62-27.62-27.62H208.358c-17.347-37.306-55.177-63.237-98.956-63.237
		c-60.14,0-109.066,48.927-109.066,109.066c0,27.687,10.376,52.992,27.436,72.246v146.687H7.5c-4.143,0-7.5,3.358-7.5,7.5v27.488
		c0,18.653,15.175,33.828,33.828,33.828h400.873c18.652,0,33.827-15.175,33.827-33.828v-27.488
		C468.528,367.213,465.171,363.855,461.028,363.855z M413.142,114.094c6.959,0,12.62,5.661,12.62,12.62v237.14H42.771V231.207
		c4.553,3.524,9.388,6.699,14.47,9.478v101.199c0,4.142,3.357,7.5,7.5,7.5h339.04c4.143,0,7.5-3.358,7.5-7.5v-205.81
		c0-4.142-3.357-7.5-7.5-7.5H217.243c-0.746-4.943-1.83-9.776-3.219-14.48H413.142z M201.775,273.272l-7.566-59.769
		c15.669-19.362,24.26-43.581,24.26-68.58c0-0.451-0.012-0.899-0.017-1.349h81.141l-110.24,190.81H72.241v-86.918
		c11.604,4.218,24.118,6.523,37.161,6.523c14.695,0,28.887-2.854,42.261-8.493l37.622,34.263c1.413,1.287,3.223,1.955,5.052,1.955
		c1.178,0,2.362-0.277,3.455-0.844C200.58,279.422,202.17,276.389,201.775,273.272z M396.281,226.944l-62.068,107.44h-89.152
		l110.24-190.81h40.98V226.944z M396.281,256.93v77.455h-44.745L396.281,256.93z M227.738,334.385h-21.061l110.24-190.81h21.061
		L227.738,334.385z M109.402,50.857c51.868,0,94.066,42.198,94.066,94.066c0,22.536-8.094,44.336-22.791,61.384
		c-1.387,1.609-2.026,3.731-1.76,5.839l5.421,42.819l-26.211-23.87c-1.411-1.285-3.22-1.955-5.052-1.955
		c-1.095,0-2.197,0.24-3.228,0.731c-12.682,6.05-26.29,9.117-40.446,9.117c-51.868,0-94.066-42.198-94.066-94.066
		S57.534,50.857,109.402,50.857z M292.104,378.855c-2.758,5.479-8.421,9.256-14.963,9.256h-85.75
		c-6.541,0-12.204-3.776-14.962-9.256H292.104z M453.528,398.843c0,10.382-8.446,18.828-18.827,18.828H33.828
		c-10.382,0-18.828-8.446-18.828-18.828v-19.988h145.539c3.38,13.901,15.927,24.256,30.853,24.256h85.75
		c14.927,0,27.474-10.354,30.854-24.256h145.533V398.843z"/>
</g>
<g>
</g>
<g>
</g>
<g>
</g>
<g>
</g>
<g>
</g>
<g>
</g>
<g>
</g>
<g>
</g>
<g>
</g>
<g>
</g>
<g>
</g>
<g>
</g>
<g>
</g>
<g>
</g>
<g>
</g>
</svg>
