<?xml version="1.0" encoding="iso-8859-1"?>
<!-- Generator: Adobe Illustrator 18.0.0, SVG Export Plug-In . SVG Version: 6.00 Build 0)  -->
<!DOCTYPE svg PUBLIC "-//W3C//DTD SVG 1.1//EN" "http://www.w3.org/Graphics/SVG/1.1/DTD/svg11.dtd">
<svg version="1.1" id="Capa_1" xmlns="http://www.w3.org/2000/svg" xmlns:xlink="http://www.w3.org/1999/xlink" x="0px" y="0px"
	 viewBox="0 0 430.021 430.021" style="enable-background:new 0 0 430.021 430.021;" xml:space="preserve">
<path d="M428.953,211.154l-86-143.458c-1.733-2.891-5.182-4.272-8.433-3.372c-3.25,0.899-5.5,3.856-5.5,7.228v44.822h-220.5
	c-4.142,0-7.5,3.358-7.5,7.5v24.499h-36.5c-3.116,0-5.907,1.926-7.012,4.839L0.488,303.485c-0.875,2.305-0.561,4.892,0.839,6.92
	c1.4,2.029,3.708,3.24,6.173,3.24h321.521v44.822c0,3.372,2.25,6.329,5.5,7.228c0.664,0.184,1.336,0.272,2,0.272
	c2.587,0,5.053-1.344,6.433-3.644l86-143.458C430.377,216.493,430.377,213.528,428.953,211.154z M131.849,280.924
	c1.091,1.793,2.885,3.047,4.944,3.457c0.485,0.097,0.975,0.144,1.463,0.144c1.579,0,3.132-0.499,4.427-1.446l56.338-41.197
	l34.549,56.764H30.46l77.627-56.764L131.849,280.924z M211.173,232.995l76.783-56.146l-42.609,112.293L211.173,232.995z
	 M140.419,266.152L77.864,163.374H280.97L140.419,266.152z M66.09,172.88l34.171,56.143l-76.778,56.143L66.09,172.88z
	 M344.021,331.37v-25.225c0-4.142-3.358-7.5-7.5-7.5h-78.737l53.165-140.111c0.875-2.305,0.561-4.892-0.839-6.92
	c-1.4-2.029-3.708-3.24-6.173-3.24H116.021v-16.999h220.5c4.142,0,7.5-3.358,7.5-7.5V98.651l69.755,116.36L344.021,331.37z"/>
<g>
</g>
<g>
</g>
<g>
</g>
<g>
</g>
<g>
</g>
<g>
</g>
<g>
</g>
<g>
</g>
<g>
</g>
<g>
</g>
<g>
</g>
<g>
</g>
<g>
</g>
<g>
</g>
<g>
</g>
</svg>
