<?xml version="1.0" encoding="iso-8859-1"?>
<!-- Generator: Adobe Illustrator 18.0.0, SVG Export Plug-In . SVG Version: 6.00 Build 0)  -->
<!DOCTYPE svg PUBLIC "-//W3C//DTD SVG 1.1//EN" "http://www.w3.org/Graphics/SVG/1.1/DTD/svg11.dtd">
<svg version="1.1" id="Capa_1" xmlns="http://www.w3.org/2000/svg" xmlns:xlink="http://www.w3.org/1999/xlink" x="0px" y="0px"
	 viewBox="0 0 379.388 379.388" style="enable-background:new 0 0 379.388 379.388;" xml:space="preserve">
<g>
	<path d="M304.575,85.927l-21.168,5.451c-4.011,1.033-6.425,5.122-5.393,9.133c0.872,3.384,3.918,5.631,7.258,5.631
		c0.619,0,1.249-0.077,1.876-0.239l21.168-5.451c4.011-1.033,6.425-5.122,5.393-9.133S308.587,84.893,304.575,85.927z"/>
	<path d="M257.789,97.975L104.885,137.35c-4.012,1.033-6.426,5.122-5.393,9.133c0.872,3.384,3.918,5.631,7.258,5.631
		c0.619,0,1.249-0.077,1.875-0.239L261.529,112.5c4.012-1.033,6.426-5.122,5.393-9.133
		C265.889,99.356,261.797,96.942,257.789,97.975z"/>
	<path d="M82.108,143.215l-10.049,2.588c-4.011,1.033-6.426,5.122-5.393,9.133c0.872,3.384,3.918,5.632,7.258,5.632
		c0.619,0,1.249-0.077,1.875-0.239l10.049-2.588c4.011-1.033,6.426-5.122,5.393-9.133C90.208,144.596,86.117,142.183,82.108,143.215
		z"/>
	<path d="M371.888,30.629h-38.79c-4.142,0-7.5,3.358-7.5,7.5v14.169L53.79,122.293v-2.452c0-4.142-3.358-7.5-7.5-7.5H7.5
		c-4.142,0-7.5,3.358-7.5,7.5v115.157c0,4.142,3.358,7.5,7.5,7.5h38.79c4.142,0,7.5-3.358,7.5-7.5v-2.452l42.909,11.05
		c-2.829,8.237-4.26,16.859-4.26,25.734c0,43.798,35.623,79.43,79.41,79.43c38.901,0,71.657-28.2,78.21-65.672l75.541,19.453v14.169
		c0,4.142,3.358,7.5,7.5,7.5h38.79c4.142,0,7.5-3.358,7.5-7.5V38.129C379.388,33.987,376.03,30.629,371.888,30.629z
		 M340.599,142.583l23.79,13.733V272.66l-23.79-13.733V142.583z M340.599,125.263v-16.912l23.79,13.733v16.912L340.599,125.263z
		 M340.599,45.629h23.79v59.135l-23.79-13.733V45.629z M15,158.136l23.79,13.733v14.232L15,172.369V158.136z M38.79,127.341v27.209
		L15,140.817v-13.476H38.79z M38.79,227.498H15v-37.809l23.79,13.733V227.498z M171.848,333.759c-35.516,0-64.41-28.903-64.41-64.43
		c0-7.602,1.309-14.965,3.861-21.974l9.739,2.508c-2.366,6.163-3.6,12.754-3.6,19.466c0,30.013,24.408,54.43,54.41,54.43
		c27.464,0,50.227-20.457,53.891-46.934l9.752,2.511C230.66,310.306,203.805,333.759,171.848,333.759z M135.693,253.637
		l75.395,19.415c-1.882,20.002-18.758,35.707-39.239,35.707c-21.731,0-39.41-17.688-39.41-39.43
		C132.438,263.876,133.554,258.539,135.693,253.637z M53.79,217.056v-79.274l271.809-69.994v219.263L53.79,217.056z
		 M340.599,309.209v-32.963l23.79,13.733v19.23H340.599z"/>
</g>
<g>
</g>
<g>
</g>
<g>
</g>
<g>
</g>
<g>
</g>
<g>
</g>
<g>
</g>
<g>
</g>
<g>
</g>
<g>
</g>
<g>
</g>
<g>
</g>
<g>
</g>
<g>
</g>
<g>
</g>
</svg>
