<?xml version="1.0" encoding="iso-8859-1"?>
<!-- Generator: Adobe Illustrator 18.0.0, SVG Export Plug-In . SVG Version: 6.00 Build 0)  -->
<!DOCTYPE svg PUBLIC "-//W3C//DTD SVG 1.1//EN" "http://www.w3.org/Graphics/SVG/1.1/DTD/svg11.dtd">
<svg version="1.1" id="Capa_1" xmlns="http://www.w3.org/2000/svg" xmlns:xlink="http://www.w3.org/1999/xlink" x="0px" y="0px"
	 viewBox="0 0 414.502 414.502" style="enable-background:new 0 0 414.502 414.502;" xml:space="preserve">
<path d="M409.019,123.784l-23.374-6.527V23.921c0-4.142-3.357-7.5-7.5-7.5H320.43c-4.143,0-7.5,3.358-7.5,7.5v21.58L149.554,95.682
	H63.283c-11.666,0-21.974,5.922-28.08,14.916C15.645,111.472,0,127.653,0,147.424v43.267c0,17.76,12.623,32.625,29.368,36.1v8.142
	c0,4.142,3.357,7.5,7.5,7.5h1.885l49.915,150.509c1.018,3.068,3.887,5.139,7.119,5.139h75.896c4.143,0,7.5-3.358,7.5-7.5v-24.344
	c0-4.142-3.357-7.5-7.5-7.5H157.04l-30.071-90.217l17.243-26.087h5.342l163.376,50.181v21.58c0,4.142,3.357,7.5,7.5,7.5h57.715
	c4.143,0,7.5-3.358,7.5-7.5v-93.336l23.374-6.527c3.242-0.905,5.483-3.858,5.483-7.224v-76.099
	C414.502,127.643,412.261,124.689,409.019,123.784z M370.645,134.329l-42.715-24.658V72.646l42.715,24.658V134.329z M327.93,126.992
	l42.715,24.658v107.173l-42.715-24.657V126.992z M327.93,31.421h42.715v48.562L327.93,55.326V31.421z M63.283,110.682h79.896v116.75
	H44.368v-97.835C44.368,119.167,52.854,110.682,63.283,110.682z M15,190.691v-43.267c0-9.425,5.993-17.476,14.368-20.542v2.716
	v81.637C20.993,208.167,15,200.116,15,190.691z M164.183,373.736v9.344h-62.981l-3.099-9.344H164.183z M141.229,358.736H93.128
	l-27.793-83.808h47.959L141.229,358.736z M114.666,259.929H60.36l-5.802-17.496h71.673L114.666,259.929z M158.18,229.391V108.724
	l154.75-47.531v215.729L158.18,229.391z M327.93,306.693v-19.622v-35.585l42.715,24.658v30.55H327.93z M399.502,201.414
	l-13.857,3.87v-72.453l13.857,3.87V201.414z"/>
<g>
</g>
<g>
</g>
<g>
</g>
<g>
</g>
<g>
</g>
<g>
</g>
<g>
</g>
<g>
</g>
<g>
</g>
<g>
</g>
<g>
</g>
<g>
</g>
<g>
</g>
<g>
</g>
<g>
</g>
</svg>
