<?xml version="1.0" encoding="iso-8859-1"?>
<!-- Generator: Adobe Illustrator 18.0.0, SVG Export Plug-In . SVG Version: 6.00 Build 0)  -->
<!DOCTYPE svg PUBLIC "-//W3C//DTD SVG 1.1//EN" "http://www.w3.org/Graphics/SVG/1.1/DTD/svg11.dtd">
<svg version="1.1" id="Capa_1" xmlns="http://www.w3.org/2000/svg" xmlns:xlink="http://www.w3.org/1999/xlink" x="0px" y="0px"
	 viewBox="0 0 454.07 454.07" style="enable-background:new 0 0 454.07 454.07;" xml:space="preserve">
<path d="M311.921,81.999h-3.186c0.004-0.323,0.014-0.648,0.014-0.97C308.749,36.349,272.093,0,227.037,0
	c-45.063,0-81.723,36.349-81.723,81.029c0,0.322,0.01,0.647,0.014,0.97h-3.179c-4.143,0-7.5,3.358-7.5,7.5v96.786
	c0,3.46,2.367,6.471,5.729,7.288l38.343,9.317v176.207c0,2.873,1.642,5.494,4.227,6.748c11.677,5.666,24.071,8.961,36.584,9.903
	v50.823c0,4.142,3.357,7.5,7.5,7.5s7.5-3.358,7.5-7.5v-50.823c12.513-0.943,24.906-4.238,36.584-9.903
	c2.585-1.254,4.227-3.875,4.227-6.748V202.891l38.349-9.318c3.362-0.817,5.729-3.828,5.729-7.288V89.499
	C319.421,85.356,316.063,81.999,311.921,81.999z M160.314,81.029c0-36.408,29.932-66.029,66.723-66.029
	c36.785,0,66.712,29.621,66.712,66.029c0,0.321-0.023,0.647-0.028,0.97H160.343C160.338,81.677,160.314,81.349,160.314,81.029z
	 M149.649,96.999h69.886V197.37l-69.886-16.982V96.999z M193.721,374.262v-18.697c10.816,3.802,22.063,5.704,33.311,5.704
	s22.494-1.902,33.311-5.704v18.697C238.942,383.283,215.122,383.283,193.721,374.262z M260.343,339.49
	c-21.403,9.021-45.218,9.021-66.621,0V206.534l31.543,7.665c0.581,0.141,1.176,0.212,1.771,0.212s1.189-0.071,1.771-0.212
	l31.537-7.663V339.49z M304.421,180.388l-69.886,16.982V96.999h69.886V180.388z"/>
<g>
</g>
<g>
</g>
<g>
</g>
<g>
</g>
<g>
</g>
<g>
</g>
<g>
</g>
<g>
</g>
<g>
</g>
<g>
</g>
<g>
</g>
<g>
</g>
<g>
</g>
<g>
</g>
<g>
</g>
</svg>
