<?xml version="1.0" encoding="iso-8859-1"?>
<!-- Generator: Adobe Illustrator 18.0.0, SVG Export Plug-In . SVG Version: 6.00 Build 0)  -->
<!DOCTYPE svg PUBLIC "-//W3C//DTD SVG 1.1//EN" "http://www.w3.org/Graphics/SVG/1.1/DTD/svg11.dtd">
<svg version="1.1" id="Capa_1" xmlns="http://www.w3.org/2000/svg" xmlns:xlink="http://www.w3.org/1999/xlink" x="0px" y="0px"
	 viewBox="0 0 436.479 436.479" style="enable-background:new 0 0 436.479 436.479;" xml:space="preserve">
<g>
	<path d="M333.292,0H103.187c-13.477,0-24.44,10.964-24.44,24.44v387.598c0,13.477,10.964,24.44,24.44,24.44h230.105
		c13.477,0,24.44-10.964,24.44-24.44V24.44C357.733,10.964,346.769,0,333.292,0z M342.733,412.038c0,5.206-4.235,9.44-9.44,9.44
		H103.187c-5.205,0-9.44-4.235-9.44-9.44V24.44c0-5.206,4.235-9.44,9.44-9.44h230.105c5.205,0,9.44,4.235,9.44,9.44V412.038z"/>
	<path d="M323.233,50.998H113.246c-4.143,0-7.5,3.358-7.5,7.5V318.19c0,4.142,3.357,7.5,7.5,7.5h209.986c4.143,0,7.5-3.358,7.5-7.5
		V58.498C330.733,54.355,327.375,50.998,323.233,50.998z M120.746,166.079l57.829-100.082h20.376l-78.205,135.357V166.079z
		 M161.25,65.998l-40.504,70.098V65.998H161.25z M120.746,231.339l95.529-165.341h99.458v143.936L257.527,310.69H120.746V231.339z
		 M274.849,310.69l40.883-70.77v70.77H274.849z"/>
	<path d="M188.24,40.499h70.497c4.143,0,7.5-3.358,7.5-7.5s-3.357-7.5-7.5-7.5H188.24c-4.143,0-7.5,3.358-7.5,7.5
		S184.098,40.499,188.24,40.499z"/>
	<path d="M158.242,338.983h-44.996c-4.143,0-7.5,3.358-7.5,7.5s3.357,7.5,7.5,7.5h44.996c4.143,0,7.5-3.358,7.5-7.5
		S162.385,338.983,158.242,338.983z"/>
	<path d="M240.738,338.983h-44.996c-4.143,0-7.5,3.358-7.5,7.5s3.357,7.5,7.5,7.5h44.996c4.143,0,7.5-3.358,7.5-7.5
		S244.881,338.983,240.738,338.983z"/>
	<path d="M323.233,338.983h-44.996c-4.143,0-7.5,3.358-7.5,7.5s3.357,7.5,7.5,7.5h44.996c4.143,0,7.5-3.358,7.5-7.5
		S327.375,338.983,323.233,338.983z"/>
	<path d="M158.242,364.482h-44.996c-4.143,0-7.5,3.358-7.5,7.5s3.357,7.5,7.5,7.5h44.996c4.143,0,7.5-3.358,7.5-7.5
		S162.385,364.482,158.242,364.482z"/>
	<path d="M240.738,364.482h-44.996c-4.143,0-7.5,3.358-7.5,7.5s3.357,7.5,7.5,7.5h44.996c4.143,0,7.5-3.358,7.5-7.5
		S244.881,364.482,240.738,364.482z"/>
	<path d="M323.233,364.482h-44.996c-4.143,0-7.5,3.358-7.5,7.5s3.357,7.5,7.5,7.5h44.996c4.143,0,7.5-3.358,7.5-7.5
		S327.375,364.482,323.233,364.482z"/>
	<path d="M158.242,389.981h-44.996c-4.143,0-7.5,3.358-7.5,7.5s3.357,7.5,7.5,7.5h44.996c4.143,0,7.5-3.358,7.5-7.5
		S162.385,389.981,158.242,389.981z"/>
	<path d="M240.738,389.981h-44.996c-4.143,0-7.5,3.358-7.5,7.5s3.357,7.5,7.5,7.5h44.996c4.143,0,7.5-3.358,7.5-7.5
		S244.881,389.981,240.738,389.981z"/>
	<path d="M323.233,389.981h-44.996c-4.143,0-7.5,3.358-7.5,7.5s3.357,7.5,7.5,7.5h44.996c4.143,0,7.5-3.358,7.5-7.5
		S327.375,389.981,323.233,389.981z"/>
</g>
<g>
</g>
<g>
</g>
<g>
</g>
<g>
</g>
<g>
</g>
<g>
</g>
<g>
</g>
<g>
</g>
<g>
</g>
<g>
</g>
<g>
</g>
<g>
</g>
<g>
</g>
<g>
</g>
<g>
</g>
</svg>
