<?xml version="1.0" encoding="iso-8859-1"?>
<!-- Generator: Adobe Illustrator 18.0.0, SVG Export Plug-In . SVG Version: 6.00 Build 0)  -->
<!DOCTYPE svg PUBLIC "-//W3C//DTD SVG 1.1//EN" "http://www.w3.org/Graphics/SVG/1.1/DTD/svg11.dtd">
<svg version="1.1" id="Capa_1" xmlns="http://www.w3.org/2000/svg" xmlns:xlink="http://www.w3.org/1999/xlink" x="0px" y="0px"
	 viewBox="0 0 467.697 467.697" style="enable-background:new 0 0 467.697 467.697;" xml:space="preserve">
<g>
	<path d="M141.183,158.618h185.331c4.142,0,7.5-3.358,7.5-7.5v-32.622c0-4.142-3.358-7.5-7.5-7.5H141.183
		c-4.142,0-7.5,3.358-7.5,7.5v32.622C133.683,155.26,137.041,158.618,141.183,158.618z M191.889,143.618h-6.776l10.183-17.622h6.776
		L191.889,143.618z M219.397,125.996h66.729l-10.183,17.622h-66.729L219.397,125.996z M319.014,143.618h-25.748l10.183-17.622
		h15.565V143.618z M148.683,125.996h29.289l-10.183,17.622h-19.106V125.996z"/>
	<path d="M376.533,67.065l-2.98-3.426C338.372,23.196,287.452,0,233.848,0C180.245,0,129.324,23.196,94.144,63.639l-2.98,3.426
		c-1.188,1.365-1.841,3.113-1.841,4.922v19.508c0,4.142,3.358,7.5,7.5,7.5h9.86v323.702h-2.25c-4.142,0-7.5,3.358-7.5,7.5v29.999
		c0,4.142,3.358,7.5,7.5,7.5h258.83c4.142,0,7.5-3.358,7.5-7.5v-29.999c0-4.142-3.358-7.5-7.5-7.5h-2.25V98.996h9.86
		c4.142,0,7.5-3.358,7.5-7.5V71.988C378.374,70.178,377.72,68.43,376.533,67.065z M355.763,452.697h-243.83v-14.999h243.83V452.697z
		 M346.014,422.698H121.683V98.996h224.331V422.698z M363.374,83.996H104.323v-9.203l1.139-1.31
		C137.792,36.316,184.587,15,233.849,15c49.261,0,96.056,21.316,128.386,58.484l1.139,1.31V83.996z"/>
	<path d="M256.129,340.807h-44.562c-4.142,0-7.5,3.358-7.5,7.5v54.891c0,4.142,3.358,7.5,7.5,7.5h44.562c4.142,0,7.5-3.358,7.5-7.5
		v-54.891C263.629,344.165,260.271,340.807,256.129,340.807z M248.629,395.698h-29.562v-39.891h29.562V395.698z"/>
	<path d="M141.183,410.698h44.562c4.142,0,7.5-3.358,7.5-7.5v-54.891c0-4.142-3.358-7.5-7.5-7.5h-44.562c-4.142,0-7.5,3.358-7.5,7.5
		v54.891C133.683,407.34,137.041,410.698,141.183,410.698z M148.683,355.807h29.562v39.891h-29.562V355.807z"/>
	<path d="M326.514,340.807h-44.563c-4.142,0-7.5,3.358-7.5,7.5v54.891c0,4.142,3.358,7.5,7.5,7.5h44.563c4.142,0,7.5-3.358,7.5-7.5
		v-54.891C334.014,344.165,330.656,340.807,326.514,340.807z M319.014,395.698h-29.563v-39.891h29.563V395.698z"/>
	<path d="M256.129,175.679h-44.562c-4.142,0-7.5,3.358-7.5,7.5v54.892c0,4.142,3.358,7.5,7.5,7.5h44.562c4.142,0,7.5-3.358,7.5-7.5
		v-54.892C263.629,179.037,260.271,175.679,256.129,175.679z M248.629,230.571h-29.562v-39.892h29.562V230.571z"/>
	<path d="M141.183,245.571h44.562c4.142,0,7.5-3.358,7.5-7.5v-54.892c0-4.142-3.358-7.5-7.5-7.5h-44.562c-4.142,0-7.5,3.358-7.5,7.5
		v54.892C133.683,242.213,137.041,245.571,141.183,245.571z M148.683,190.679h29.562v39.892h-29.562V190.679z"/>
	<path d="M326.514,175.679h-44.563c-4.142,0-7.5,3.358-7.5,7.5v54.892c0,4.142,3.358,7.5,7.5,7.5h44.563c4.142,0,7.5-3.358,7.5-7.5
		v-54.892C334.014,179.037,330.656,175.679,326.514,175.679z M319.014,230.571h-29.563v-39.892h29.563V230.571z"/>
	<path d="M256.129,258.243h-44.562c-4.142,0-7.5,3.358-7.5,7.5v54.891c0,4.142,3.358,7.5,7.5,7.5h44.562c4.142,0,7.5-3.358,7.5-7.5
		v-54.891C263.629,261.601,260.271,258.243,256.129,258.243z M248.629,313.134h-29.562v-39.891h29.562V313.134z"/>
	<path d="M141.183,328.134h44.562c4.142,0,7.5-3.358,7.5-7.5v-54.891c0-4.142-3.358-7.5-7.5-7.5h-44.562c-4.142,0-7.5,3.358-7.5,7.5
		v54.891C133.683,324.776,137.041,328.134,141.183,328.134z M148.683,273.243h29.562v39.891h-29.562V273.243z"/>
	<path d="M326.514,258.243h-44.563c-4.142,0-7.5,3.358-7.5,7.5v54.891c0,4.142,3.358,7.5,7.5,7.5h44.563c4.142,0,7.5-3.358,7.5-7.5
		v-54.891C334.014,261.601,330.656,258.243,326.514,258.243z M319.014,313.134h-29.563v-39.891h29.563V313.134z"/>
</g>
<g>
</g>
<g>
</g>
<g>
</g>
<g>
</g>
<g>
</g>
<g>
</g>
<g>
</g>
<g>
</g>
<g>
</g>
<g>
</g>
<g>
</g>
<g>
</g>
<g>
</g>
<g>
</g>
<g>
</g>
</svg>
