<?xml version="1.0" encoding="iso-8859-1"?>
<!-- Generator: Adobe Illustrator 18.0.0, SVG Export Plug-In . SVG Version: 6.00 Build 0)  -->
<!DOCTYPE svg PUBLIC "-//W3C//DTD SVG 1.1//EN" "http://www.w3.org/Graphics/SVG/1.1/DTD/svg11.dtd">
<svg version="1.1" id="Capa_1" xmlns="http://www.w3.org/2000/svg" xmlns:xlink="http://www.w3.org/1999/xlink" x="0px" y="0px"
	 viewBox="0 0 468.824 468.824" style="enable-background:new 0 0 468.824 468.824;" xml:space="preserve">
<path d="M461.56,275.779l-18.473-44.862c-0.71-1.725-2.038-3.124-3.724-3.922l-20.057-9.5c-3.362-1.594-7.386-0.479-9.451,2.618
	l-40.112,60.168c-1.725,2.588-1.674,5.972,0.128,8.506l20.561,28.916c-17.673,28.953-50.476,61.755-79.429,79.429l-28.916-20.561
	c-2.534-1.802-5.919-1.854-8.506-0.128l-60.168,40.112c-3.097,2.064-4.211,6.087-2.618,9.451l2.414,5.096
	c-0.676,0.221-1.345,0.443-2,0.663c-3.902,1.309-7.938,2.661-10.229,2.084c-2.392-0.606-5.336-3.754-8.183-6.799
	c-3.639-3.892-7.764-8.304-13.298-10.371c-5.604-2.106-11.651-1.489-16.989-0.945c-4.108,0.419-8.357,0.853-10.502-0.236
	c-2.183-1.105-4.357-4.815-6.46-8.403c-2.697-4.602-5.753-9.818-10.717-13.068c-4.998-3.275-11.026-3.994-16.346-4.628
	c-4.11-0.49-8.36-0.997-10.226-2.537c-1.878-1.547-3.189-5.634-4.458-9.586c-1.633-5.09-3.484-10.859-7.632-15.122
	c-4.156-4.277-9.878-6.29-14.927-8.065c-3.911-1.375-7.956-2.798-9.448-4.711c-1.486-1.905-1.876-6.169-2.254-10.293
	c-0.488-5.332-1.042-11.376-4.172-16.456c-3.112-5.057-8.245-8.26-12.773-11.087c-3.529-2.203-7.178-4.48-8.221-6.682
	c-1.024-2.17-0.471-6.408,0.064-10.506c0.694-5.318,1.48-11.347-0.464-17.013c-1.922-5.589-6.21-9.828-9.995-13.567
	c-2.969-2.934-6.039-5.968-6.577-8.373c-0.515-2.313,0.951-6.31,2.369-10.175c1.852-5.051,3.951-10.776,3.296-16.751
	c-0.642-5.86-3.895-10.925-6.765-15.395c-2.262-3.523-4.601-7.166-4.601-9.67c0-1.666,2.386-4.911,4.303-7.519
	c2.962-4.029,6.32-8.595,6.994-14.159c0.679-5.668-1.524-10.972-3.467-15.652c-1.153-2.776-2.732-6.579-2.366-8.071
	c0.389-1.584,3.603-4.261,5.949-6.216c3.85-3.208,8.214-6.843,10.211-12.094c2.014-5.313,1.159-10.974,0.404-15.968
	c-0.451-2.985-1.069-7.073-0.338-8.462c0.747-1.421,4.492-3.241,7.227-4.57c4.525-2.199,9.654-4.692,12.86-9.33
	c3.225-4.659,3.748-10.353,4.208-15.376c0.276-3.014,0.655-7.142,1.713-8.333c1.053-1.191,5.114-2.063,8.08-2.7
	c4.924-1.058,10.504-2.256,14.736-6.005c4.234-3.751,6.093-9.151,7.734-13.915c0.988-2.87,2.342-6.8,3.657-7.71
	c1.295-0.896,5.434-0.776,8.458-0.687c5.043,0.147,10.76,0.314,15.791-2.326c4.982-2.623,8.07-7.406,10.793-11.627
	c1.652-2.559,3.914-6.064,5.425-6.638c1.447-0.548,5.422,0.56,8.324,1.369c4.873,1.36,10.395,2.901,15.923,1.543
	c5.445-1.338,9.582-5.227,13.231-8.657c2.229-2.095,5.28-4.964,6.913-5.16c1.509-0.185,5.082,1.834,7.691,3.306
	c4.427,2.497,9.444,5.327,15.177,5.327c5.408,0,9.882-3.012,13.829-5.67c1.564-1.054,4.12-2.774,5.285-3.072
	c1.057,0.577,3.111,2.874,4.369,4.28c3.187,3.565,6.799,7.606,12.071,8.918c5.274,1.317,10.352-0.563,14.833-2.223
	c1.785-0.661,4.704-1.741,5.899-1.741c0.002,0,0.004,0,0.006,0c0.897,0.778,2.394,3.496,3.309,5.156
	c2.315,4.204,4.94,8.969,9.817,11.42c4.888,2.461,10.283,1.714,15.042,1.057c1.88-0.26,4.96-0.688,6.117-0.43
	c0.719,0.948,1.614,3.937,2.16,5.762c1.376,4.595,2.936,9.804,7.19,13.226c4.267,3.434,9.7,3.84,14.494,4.198
	c1.884,0.141,4.965,0.371,6.052,0.86c0.498,1.089,0.729,4.198,0.871,6.099c0.354,4.765,0.755,10.165,4.148,14.414
	c3.399,4.251,8.581,5.854,13.152,7.268c1.8,0.557,4.741,1.466,5.699,2.184c0.222,1.179-0.282,4.238-0.591,6.11
	c-0.772,4.686-1.648,9.997,0.593,14.887c2.237,4.904,6.813,7.729,10.849,10.221c1.599,0.987,4.209,2.598,4.966,3.536
	c-0.116,1.199-1.404,3.977-2.194,5.679c-1.984,4.279-4.233,9.13-3.443,14.439c0.789,5.245,4.338,9.195,7.469,12.681
	c1.134,1.263,2.907,3.236,3.603,4.449c-0.716,0.843-2.019,2.049-2.874,2.84c-3.281,3.037-7,6.479-7.427,11.643
	c-0.445,5.534,2.93,9.998,5.641,13.584c0.423,0.56,0.953,1.261,1.412,1.908c-0.853,0.555-1.9,1.157-2.654,1.591
	c-3.739,2.152-7.978,4.592-9.63,9.273c-1.763,5.021,0.065,10.114,1.533,14.206c0.208,0.58,0.463,1.289,0.687,1.963
	c-2.107,0.659-5.166,1.348-7.862,1.917c1.707-9.197,2.607-18.674,2.607-28.358c0-85.514-69.571-155.084-155.084-155.084
	S48.189,112.541,48.189,198.054s69.571,155.084,155.084,155.084c70.052,0,129.394-46.691,148.567-110.584
	c1.331-0.292,2.763-0.587,4.238-0.89c11.693-2.404,18.457-4.012,21.507-9.115c3.045-5.091,1.056-10.632-0.542-15.084
	c-0.386-1.074-0.963-2.685-1.231-3.791c0.775-0.518,1.875-1.151,2.692-1.621c4.069-2.342,9.641-5.549,10.849-11.767
	c1.073-5.581-2.363-10.126-5.124-13.778c-0.646-0.854-1.598-2.113-2.189-3.064c0.646-0.671,1.531-1.491,2.198-2.108
	c3.538-3.274,7.94-7.349,7.94-13.425c0-6.327-4.269-11.079-7.698-14.897c-1.303-1.45-3.469-3.861-3.791-4.892
	c-0.011-1.096,1.378-4.092,2.214-5.894c2.141-4.618,4.806-10.364,2.998-16.327c-1.795-5.973-7.175-9.293-11.498-11.962
	c-1.709-1.055-4.57-2.821-5.065-3.643c-0.325-0.99,0.219-4.289,0.544-6.26c0.824-4.998,1.85-11.218-1.429-16.487
	c-3.247-5.236-9.235-7.088-14.047-8.577c-1.895-0.586-5.044-1.561-5.86-2.302c-0.528-0.957-0.769-4.206-0.915-6.161
	c-0.373-5.021-0.837-11.269-5.205-15.637c-4.34-4.331-10.56-4.795-15.558-5.168c-1.971-0.147-5.246-0.392-6.204-0.93
	c-0.726-0.819-1.664-3.953-2.229-5.838c-1.439-4.808-3.231-10.792-8.401-14.113c-5.157-3.315-11.335-2.46-16.3-1.775
	c-1.953,0.27-5.199,0.719-6.244,0.397c-0.886-0.647-2.469-3.522-3.422-5.252c-2.422-4.398-5.438-9.872-11.183-12.007
	c-5.78-2.16-11.655,0.015-16.376,1.762c-1.845,0.683-4.91,1.817-5.998,1.73c-1.007-0.429-3.199-2.88-4.517-4.355
	c-3.358-3.757-7.538-8.433-13.669-9.213c-6.143-0.773-11.356,2.738-15.545,5.559c-1.667,1.123-4.459,3.002-5.451,3.112
	c-1.794,0-4.989-1.802-7.808-3.392c-4.903-2.766-10.462-5.899-16.845-5.135c-6.529,0.783-11.243,5.214-15.402,9.125
	c-2.19,2.059-4.916,4.621-6.536,5.019c-1.707,0.419-5.216-0.56-8.311-1.424c-5.447-1.521-11.623-3.245-17.681-0.944
	c-6.118,2.323-9.617,7.744-12.704,12.527c-1.638,2.539-3.677,5.698-5.169,6.483c-1.544,0.81-5.172,0.704-8.375,0.61
	c-5.664-0.167-12.082-0.353-17.425,3.341c-5.366,3.709-7.461,9.795-9.311,15.165c-0.987,2.867-2.216,6.435-3.499,7.571
	c-1.284,1.138-4.974,1.93-7.938,2.567c-5.553,1.192-11.846,2.544-16.157,7.418c-4.317,4.864-4.904,11.264-5.422,16.911
	c-0.278,3.025-0.623,6.791-1.607,8.212c-0.97,1.402-4.359,3.049-7.082,4.373c-5.114,2.486-10.911,5.303-13.946,11.079
	c-3.023,5.742-2.064,12.088-1.218,17.686c0.479,3.173,1.023,6.77,0.404,8.402c-0.596,1.568-3.476,3.967-5.789,5.894
	c-4.382,3.651-9.349,7.789-10.914,14.162c-1.542,6.275,0.914,12.187,3.08,17.403c1.237,2.977,2.638,6.352,2.428,8.105
	c-0.199,1.645-2.41,4.651-4.186,7.067c-3.384,4.602-7.219,9.817-7.219,16.404c0,6.906,3.708,12.68,6.979,17.775
	c2.073,3.229,4.217,6.568,4.475,8.923c0.272,2.481-1.121,6.28-2.468,9.955c-2.061,5.621-4.397,11.992-2.925,18.605
	c1.501,6.711,6.374,11.527,10.673,15.775c2.74,2.708,5.574,5.509,6.352,7.772c0.802,2.337,0.281,6.334-0.223,10.198
	c-0.777,5.952-1.657,12.697,1.249,18.857c2.931,6.187,8.726,9.804,13.839,12.996c3.281,2.048,6.674,4.166,7.943,6.228
	c1.286,2.087,1.653,6.089,2.007,9.958c0.549,5.987,1.17,12.772,5.365,18.15c4.197,5.38,10.626,7.641,16.299,9.636
	c3.661,1.287,7.446,2.619,9.149,4.372c1.696,1.743,2.92,5.558,4.104,9.248c1.84,5.733,3.925,12.231,9.198,16.577
	c5.26,4.339,12.024,5.146,17.992,5.857c3.859,0.46,7.849,0.936,9.901,2.281c2.021,1.324,4.042,4.771,5.996,8.105
	c3.05,5.205,6.508,11.104,12.619,14.198c6.067,3.081,12.835,2.39,18.809,1.779c3.874-0.395,7.879-0.803,10.202,0.069
	c2.248,0.84,4.971,3.752,7.605,6.569c4.124,4.41,8.798,9.409,15.466,11.097c1.645,0.415,3.282,0.59,4.9,0.59
	c4.841,0,9.52-1.569,13.772-2.995c1.244-0.417,2.498-0.834,3.713-1.198l0.603,1.273c0.798,1.687,2.197,3.014,3.922,3.725
	l44.862,18.473c0.918,0.378,1.888,0.565,2.855,0.565c1.32,0,2.635-0.349,3.803-1.036l19.973-11.749
	c58.76-34.565,119.064-94.868,153.63-153.63l11.749-19.973C462.28,280.414,462.454,277.95,461.56,275.779z M343.156,190.554h-28.335
	c-0.962-28.327-7.367-55.292-18.501-78.496c3.537-2.663,6.98-5.477,10.309-8.459C327.851,126.8,341.385,157.142,343.156,190.554z
	 M240.769,91.606c-3.324-11.452-7.134-20.95-11.359-28.431c18.704,7.62,35.127,23.209,47.411,44.067
	c-9.248,5.725-19.1,10.328-29.383,13.734C245.598,110.418,243.367,100.555,240.769,91.606z M283.065,89.372
	c-3.273-4.636-6.719-8.948-10.319-12.927c8.285,4.751,16.036,10.33,23.151,16.614c-2.208,1.951-4.466,3.828-6.774,5.625
	C287.202,95.486,285.185,92.376,283.065,89.372z M226.364,95.788c2.562,8.827,4.744,18.624,6.532,29.138
	c-9.631,2.065-19.546,3.133-29.62,3.133c-10.075,0-19.992-1.068-29.624-3.134c1.788-10.514,3.97-20.31,6.532-29.136
	c8.103-27.913,17.502-37.817,23.09-37.817S218.261,67.875,226.364,95.788z M167.99,190.554c0.259-17.755,1.448-34.886,3.466-50.761
	c10.358,2.152,21.005,3.265,31.819,3.265c10.813,0,21.459-1.113,31.815-3.264c2.019,15.875,3.207,33.005,3.466,50.76H167.99z
	 M238.557,205.554c-0.259,17.757-1.448,34.89-3.467,50.767c-10.355-2.151-21.001-3.264-31.814-3.264
	c-10.814,0-21.461,1.113-31.819,3.265c-2.019-15.877-3.208-33.01-3.467-50.768H238.557z M117.424,98.683
	c-2.309-1.797-4.567-3.673-6.775-5.624c7.115-6.284,14.866-11.863,23.151-16.614c-3.599,3.979-7.046,8.291-10.318,12.927
	C121.362,92.376,119.346,95.486,117.424,98.683z M177.081,63.198c-7.931,14.021-13.95,34.34-17.995,57.768
	c-10.274-3.405-20.117-8.004-29.359-13.725C141.999,86.405,158.4,70.826,177.081,63.198z M156.816,135.994
	c-2.271,17.346-3.556,35.905-3.827,54.561h-46.253c0.943-25.778,6.721-49.726,16.036-69.98
	C133.475,127.095,144.894,132.265,156.816,135.994z M152.987,205.554c0.272,19.079,1.591,37.512,3.844,54.563
	c-11.927,3.729-23.35,8.899-34.056,15.423c-9.317-20.255-15.095-44.206-16.038-69.986H152.987z M159.111,275.141
	c1.84,10.555,4.07,20.415,6.667,29.362c3.324,11.452,7.134,20.949,11.359,28.43c-18.703-7.619-35.124-23.207-47.408-44.061
	C138.978,283.148,148.829,278.546,159.111,275.141z M123.482,306.737c3.272,4.636,6.719,8.947,10.318,12.927
	c-8.284-4.751-16.034-10.329-23.148-16.611c2.208-1.95,4.466-3.826,6.774-5.622C119.347,300.626,121.363,303.735,123.482,306.737z
	 M180.184,300.321c-2.562-8.825-4.743-18.619-6.531-29.13c9.632-2.066,19.548-3.134,29.623-3.134
	c10.074,0,19.988,1.068,29.619,3.133c-1.788,10.512-3.97,20.307-6.531,29.132c-8.103,27.913-17.502,37.817-23.09,37.817
	S188.286,328.235,180.184,300.321z M289.121,297.43c2.308,1.796,4.566,3.673,6.773,5.623c-7.114,6.283-14.864,11.86-23.148,16.611
	c3.599-3.979,7.046-8.291,10.318-12.927C285.184,303.735,287.2,300.626,289.121,297.43z M229.466,332.911
	c7.93-14.021,13.949-34.338,17.994-57.764c10.274,3.404,20.117,8.004,29.358,13.724
	C264.547,309.705,248.146,325.283,229.466,332.911z M249.731,260.12c2.272-17.348,3.556-35.907,3.828-54.565h46.253
	c-0.943,25.78-6.721,49.729-16.038,69.984C273.072,269.017,261.653,263.848,249.731,260.12z M253.56,190.554
	c-0.272-19.075-1.591-37.506-3.843-54.555c11.928-3.729,23.352-8.9,34.058-15.424c9.315,20.254,15.092,44.202,16.035,69.979H253.56z
	 M99.917,103.6c3.329,2.982,6.773,5.796,10.31,8.458c-11.134,23.204-17.539,50.17-18.501,78.497H63.391
	C65.162,157.143,78.696,126.801,99.917,103.6z M63.391,205.554h28.334c0.962,28.329,7.368,55.296,18.503,78.501
	c-3.536,2.662-6.98,5.476-10.309,8.457C78.697,269.311,65.163,238.968,63.391,205.554z M306.627,292.513
	c-3.329-2.982-6.772-5.796-10.308-8.458c11.135-23.205,17.541-50.172,18.503-78.5h28.335
	C341.385,238.968,327.85,269.312,306.627,292.513z M418.742,233.825l6.424,3.042l-35.367,54.058l-4.709-6.622L418.742,233.825z
	 M277.604,391.789l6.623,4.709l-54.059,35.368l-3.043-6.424L277.604,391.789z M436.412,294.805
	c-33.369,56.726-91.582,114.939-148.307,148.307l-16.76,9.859l-28.255-11.635l54.266-35.503l8.918,6.341
	c2.376,1.689,5.515,1.85,8.047,0.411c33.304-18.897,72.668-58.262,91.564-91.564c1.438-2.534,1.278-5.672-0.411-8.047l-6.341-8.918
	l35.503-54.266l11.635,28.255L436.412,294.805z"/>
<g>
</g>
<g>
</g>
<g>
</g>
<g>
</g>
<g>
</g>
<g>
</g>
<g>
</g>
<g>
</g>
<g>
</g>
<g>
</g>
<g>
</g>
<g>
</g>
<g>
</g>
<g>
</g>
<g>
</g>
</svg>
