<?xml version="1.0" encoding="iso-8859-1"?>
<!-- Generator: Adobe Illustrator 18.0.0, SVG Export Plug-In . SVG Version: 6.00 Build 0)  -->
<!DOCTYPE svg PUBLIC "-//W3C//DTD SVG 1.1//EN" "http://www.w3.org/Graphics/SVG/1.1/DTD/svg11.dtd">
<svg version="1.1" id="Capa_1" xmlns="http://www.w3.org/2000/svg" xmlns:xlink="http://www.w3.org/1999/xlink" x="0px" y="0px"
	 viewBox="0 0 404.003 404.003" style="enable-background:new 0 0 404.003 404.003;" xml:space="preserve">
<g>
	<path d="M403.929,361.32L389.84,136.377c-1.26-20.119-18.038-35.878-38.196-35.878H96.848l241.744-83.892
		c3.913-1.358,5.984-5.631,4.626-9.544c-1.358-3.913-5.633-5.984-9.544-4.626L51,100.532c-19.547,0.691-35.605,16.181-36.836,35.845
		L0.074,361.32c-0.658,10.502,3.097,20.925,10.301,28.595s17.372,12.069,27.895,12.069h327.462c10.523,0,20.69-4.399,27.895-12.069
		S404.587,371.823,403.929,361.32z M382.695,379.645c-4.445,4.732-10.469,7.338-16.962,7.338H38.27
		c-6.493,0-12.517-2.606-16.962-7.338c-4.445-4.732-6.669-10.907-6.264-17.388l14.089-224.943
		c0.766-12.233,10.968-21.816,23.226-21.816h299.284c12.257,0,22.459,9.583,23.226,21.816l14.089,224.943
		C389.364,368.738,387.14,374.913,382.695,379.645z"/>
	<path d="M362.892,138.065c-0.371-5.926-5.312-10.567-11.249-10.567H52.36c-5.938,0-10.878,4.642-11.249,10.567L27.021,363.007
		c-0.197,3.139,0.88,6.13,3.034,8.422c2.153,2.292,5.07,3.555,8.215,3.555h327.463c3.145,0,6.062-1.262,8.217-3.556
		c2.152-2.293,3.229-5.284,3.032-8.42L362.892,138.065z M42.24,359.984l13.623-217.486H348.14l13.623,217.486H42.24z"/>
	<path d="M173.365,203.994h57.273c4.142,0,7.5-3.358,7.5-7.5s-3.358-7.5-7.5-7.5h-57.273c-4.142,0-7.5,3.358-7.5,7.5
		S169.223,203.994,173.365,203.994z"/>
	<path d="M142.204,230.24h119.594c4.142,0,7.5-3.358,7.5-7.5s-3.358-7.5-7.5-7.5H142.204c-4.142,0-7.5,3.358-7.5,7.5
		S138.062,230.24,142.204,230.24z"/>
	<path d="M272.392,241.499H131.611c-4.142,0-7.5,3.358-7.5,7.5s3.358,7.5,7.5,7.5h140.781c4.142,0,7.5-3.358,7.5-7.5
		S276.534,241.499,272.392,241.499z"/>
	<path d="M272.392,267.745H131.611c-4.142,0-7.5,3.358-7.5,7.5s3.358,7.5,7.5,7.5h140.781c4.142,0,7.5-3.358,7.5-7.5
		S276.534,267.745,272.392,267.745z"/>
	<path d="M261.799,294.003H142.204c-4.142,0-7.5,3.358-7.5,7.5s3.358,7.5,7.5,7.5h119.594c4.142,0,7.5-3.358,7.5-7.5
		S265.941,294.003,261.799,294.003z"/>
	<path d="M230.65,320.249h-57.297c-4.142,0-7.5,3.358-7.5,7.5s3.358,7.5,7.5,7.5h57.297c4.142,0,7.5-3.358,7.5-7.5
		S234.792,320.249,230.65,320.249z"/>
	<path d="M99.415,159.49c-16.542,0-29.999,13.458-29.999,29.999c0,16.542,13.458,29.999,29.999,29.999s29.999-13.458,29.999-29.999
		C129.414,172.947,115.956,159.49,99.415,159.49z M99.415,204.487c-8.271,0-14.999-6.729-14.999-14.999
		c0-8.27,6.729-14.999,14.999-14.999s14.999,6.729,14.999,14.999C114.414,197.759,107.685,204.487,99.415,204.487z"/>
	<path d="M304.588,159.49c-16.541,0-29.999,13.458-29.999,29.999c0,16.542,13.458,29.999,29.999,29.999
		c16.542,0,29.999-13.458,29.999-29.999C334.587,172.947,321.13,159.49,304.588,159.49z M304.588,204.487
		c-8.27,0-14.999-6.729-14.999-14.999c0-8.27,6.729-14.999,14.999-14.999c8.271,0,14.999,6.729,14.999,14.999
		C319.587,197.759,312.859,204.487,304.588,204.487z"/>
</g>
<g>
</g>
<g>
</g>
<g>
</g>
<g>
</g>
<g>
</g>
<g>
</g>
<g>
</g>
<g>
</g>
<g>
</g>
<g>
</g>
<g>
</g>
<g>
</g>
<g>
</g>
<g>
</g>
<g>
</g>
</svg>
