<?xml version="1.0" encoding="iso-8859-1"?>
<!-- Generator: Adobe Illustrator 18.0.0, SVG Export Plug-In . SVG Version: 6.00 Build 0)  -->
<!DOCTYPE svg PUBLIC "-//W3C//DTD SVG 1.1//EN" "http://www.w3.org/Graphics/SVG/1.1/DTD/svg11.dtd">
<svg version="1.1" id="Capa_1" xmlns="http://www.w3.org/2000/svg" xmlns:xlink="http://www.w3.org/1999/xlink" x="0px" y="0px"
	 viewBox="0 0 450.06 450.06" style="enable-background:new 0 0 450.06 450.06;" xml:space="preserve">
<g>
	<path d="M198.106,49.84h53.847c4.143,0,7.5-3.358,7.5-7.5s-3.357-7.5-7.5-7.5h-53.847c-4.143,0-7.5,3.358-7.5,7.5
		S193.964,49.84,198.106,49.84z"/>
	<path d="M225.03,387.482c-10.54,0-19.114,8.574-19.114,19.114s8.574,19.114,19.114,19.114c10.539,0,19.113-8.575,19.113-19.114
		S235.569,387.482,225.03,387.482z M225.03,410.71c-2.269,0-4.114-1.846-4.114-4.114s1.846-4.114,4.114-4.114
		s4.113,1.845,4.113,4.114S227.299,410.71,225.03,410.71z"/>
	<path d="M409.736,205.363h-42.651V29.48c0-16.255-13.225-29.48-29.48-29.48H112.455c-16.256,0-29.48,13.225-29.48,29.48v104.915
		h-42.65c-4.143,0-7.5,3.358-7.5,7.5v84.064c0,4.142,3.357,7.5,7.5,7.5h42.65V420.59c0,16.25,13.225,29.47,29.48,29.47h225.149
		c16.256,0,29.48-13.22,29.48-29.47V304.427h42.651c4.143,0,7.5-3.358,7.5-7.5v-84.064
		C417.236,208.721,413.879,205.363,409.736,205.363z M97.974,29.48c0-7.984,6.496-14.48,14.48-14.48h225.149
		c7.984,0,14.48,6.496,14.48,14.48v175.883h-11.391V75.85c0-4.142-3.357-7.5-7.5-7.5h-216.33c-4.143,0-7.5,3.358-7.5,7.5v58.545
		h-11.39V29.48z M299.001,168.87c-2.926-1.099-6.225-0.269-8.282,2.083l-69.119,79.004c-2.474,2.828-2.474,7.049,0,9.877
		l69.119,79.004c1.452,1.66,3.524,2.562,5.646,2.562c0.884,0,1.775-0.157,2.636-0.479c2.925-1.099,4.862-3.896,4.862-7.021v-29.473
		h21.831v62.283h-201.33V233.459h21.833v29.472c0,3.125,1.938,5.922,4.862,7.021c0.86,0.323,1.752,0.479,2.636,0.479
		c2.122,0,4.194-0.902,5.646-2.562l69.119-79.004c2.474-2.828,2.474-7.049,0-9.877l-69.119-79.004
		c-2.057-2.352-5.355-3.18-8.282-2.083c-2.925,1.099-4.862,3.896-4.862,7.021v29.473h-21.833V83.35h201.33v122.013h-21.831v-29.472
		C303.863,172.766,301.926,169.969,299.001,168.87z M47.824,149.395h105.873c4.143,0,7.5-3.358,7.5-7.5v-17.01l51.654,59.042
		l-51.654,59.042v-17.009c0-4.142-3.357-7.5-7.5-7.5H47.824V149.395z M352.085,420.59c0,7.979-6.496,14.47-14.48,14.47H112.455
		c-7.984,0-14.48-6.491-14.48-14.47V233.459h11.39V374.21c0,4.142,3.357,7.5,7.5,7.5h216.33c4.143,0,7.5-3.358,7.5-7.5v-69.783
		h11.391V420.59z M402.236,289.427H296.363c-4.143,0-7.5,3.358-7.5,7.5v17.01l-51.654-59.042l51.654-59.042v17.009
		c0,4.142,3.357,7.5,7.5,7.5h105.873V289.427z"/>
</g>
<g>
</g>
<g>
</g>
<g>
</g>
<g>
</g>
<g>
</g>
<g>
</g>
<g>
</g>
<g>
</g>
<g>
</g>
<g>
</g>
<g>
</g>
<g>
</g>
<g>
</g>
<g>
</g>
<g>
</g>
</svg>
