<?xml version="1.0" encoding="iso-8859-1"?>
<!-- Generator: Adobe Illustrator 18.0.0, SVG Export Plug-In . SVG Version: 6.00 Build 0)  -->
<!DOCTYPE svg PUBLIC "-//W3C//DTD SVG 1.1//EN" "http://www.w3.org/Graphics/SVG/1.1/DTD/svg11.dtd">
<svg version="1.1" id="Capa_1" xmlns="http://www.w3.org/2000/svg" xmlns:xlink="http://www.w3.org/1999/xlink" x="0px" y="0px"
	 viewBox="0 0 389.336 389.336" style="enable-background:new 0 0 389.336 389.336;" xml:space="preserve">
<g>
	<path d="M327.307,281.991c25.529-30.816,39.551-69.673,39.551-109.801C366.858,77.244,289.614,0,194.668,0
		C99.722,0,22.478,77.244,22.478,172.19s77.244,172.19,172.19,172.19c24.2,0,47.536-4.904,69.44-14.583l63.229,57.583
		c1.413,1.287,3.223,1.955,5.052,1.955c1.177,0,2.363-0.277,3.455-0.844c2.789-1.448,4.378-4.48,3.984-7.598L327.307,281.991z
		 M270.538,315.366c-1.411-1.285-3.22-1.955-5.051-1.955c-1.095,0-2.198,0.24-3.228,0.731
		c-21.197,10.112-43.938,15.239-67.592,15.239c-86.675,0-157.19-70.515-157.19-157.19S107.993,15,194.668,15
		c86.675,0,157.19,70.515,157.19,157.19c0,37.659-13.526,74.089-38.085,102.579c-1.387,1.609-2.027,3.731-1.76,5.839l10.377,81.98
		L270.538,315.366z"/>
	<path d="M289.242,105.288H100.094c-4.142,0-7.5,3.358-7.5,7.5s3.358,7.5,7.5,7.5h189.149c4.142,0,7.5-3.358,7.5-7.5
		S293.385,105.288,289.242,105.288z"/>
	<path d="M289.242,147.683H100.094c-4.142,0-7.5,3.358-7.5,7.5s3.358,7.5,7.5,7.5h189.149c4.142,0,7.5-3.358,7.5-7.5
		S293.385,147.683,289.242,147.683z"/>
	<path d="M289.242,190.079H100.094c-4.142,0-7.5,3.358-7.5,7.5s3.358,7.5,7.5,7.5h189.149c4.142,0,7.5-3.358,7.5-7.5
		S293.385,190.079,289.242,190.079z"/>
	<path d="M289.242,232.474H100.094c-4.142,0-7.5,3.358-7.5,7.5s3.358,7.5,7.5,7.5h189.149c4.142,0,7.5-3.358,7.5-7.5
		S293.385,232.474,289.242,232.474z"/>
</g>
<g>
</g>
<g>
</g>
<g>
</g>
<g>
</g>
<g>
</g>
<g>
</g>
<g>
</g>
<g>
</g>
<g>
</g>
<g>
</g>
<g>
</g>
<g>
</g>
<g>
</g>
<g>
</g>
<g>
</g>
</svg>
