<?xml version="1.0" encoding="iso-8859-1"?>
<!-- Generator: Adobe Illustrator 18.0.0, SVG Export Plug-In . SVG Version: 6.00 Build 0)  -->
<!DOCTYPE svg PUBLIC "-//W3C//DTD SVG 1.1//EN" "http://www.w3.org/Graphics/SVG/1.1/DTD/svg11.dtd">
<svg version="1.1" id="Capa_1" xmlns="http://www.w3.org/2000/svg" xmlns:xlink="http://www.w3.org/1999/xlink" x="0px" y="0px"
	 viewBox="0 0 460.29 460.29" style="enable-background:new 0 0 460.29 460.29;" xml:space="preserve">
<g>
	<path d="M336.29,195.914v-90.271c0-14.144-11.507-25.65-25.65-25.65H62.751c-14.144,0-25.65,11.507-25.65,25.65v31.213
		l-35.1,37.843c-2.028,2.187-2.568,5.367-1.375,8.1c1.193,2.733,3.892,4.5,6.874,4.5h29.601v8.615
		c0,14.144,11.507,25.65,25.65,25.65h247.888C324.783,221.564,336.29,210.057,336.29,195.914z M52.101,195.914v-16.115
		c0-4.142-3.358-7.5-7.5-7.5H24.686l25.414-27.4c1.286-1.387,2.001-3.208,2.001-5.1v-34.156c0-5.873,4.778-10.65,10.65-10.65
		h247.888c5.873,0,10.65,4.778,10.65,10.65v90.271c0,5.873-4.777,10.65-10.65,10.65H62.751
		C56.879,206.564,52.101,201.786,52.101,195.914z"/>
	<path d="M458.289,333.433l-35.1-37.843v-31.213c0-14.144-11.507-25.65-25.65-25.65H149.651c-14.144,0-25.65,11.507-25.65,25.65
		v90.271c0,14.144,11.507,25.65,25.65,25.65h247.888c14.144,0,25.65-11.507,25.65-25.65v-8.615h29.601
		c2.982,0,5.681-1.767,6.874-4.5C460.856,338.799,460.317,335.619,458.289,333.433z M415.689,331.033c-4.143,0-7.5,3.358-7.5,7.5
		v16.115c0,5.873-4.777,10.65-10.65,10.65H149.651c-5.873,0-10.65-4.778-10.65-10.65v-90.271c0-5.873,4.778-10.65,10.65-10.65
		h247.888c5.873,0,10.65,4.778,10.65,10.65v34.156c0,1.892,0.715,3.713,2.001,5.1l25.414,27.4H415.689z"/>
	<path d="M284.695,124.778h-196c-4.142,0-7.5,3.358-7.5,7.5s3.358,7.5,7.5,7.5h196c4.143,0,7.5-3.358,7.5-7.5
		S288.838,124.778,284.695,124.778z"/>
	<path d="M284.695,161.778h-196c-4.142,0-7.5,3.358-7.5,7.5s3.358,7.5,7.5,7.5h196c4.143,0,7.5-3.358,7.5-7.5
		S288.838,161.778,284.695,161.778z"/>
	<path d="M371.594,283.512h-196c-4.142,0-7.5,3.358-7.5,7.5s3.358,7.5,7.5,7.5h196c4.143,0,7.5-3.358,7.5-7.5
		S375.737,283.512,371.594,283.512z"/>
	<path d="M371.594,320.512h-196c-4.142,0-7.5,3.358-7.5,7.5s3.358,7.5,7.5,7.5h196c4.143,0,7.5-3.358,7.5-7.5
		S375.737,320.512,371.594,320.512z"/>
</g>
<g>
</g>
<g>
</g>
<g>
</g>
<g>
</g>
<g>
</g>
<g>
</g>
<g>
</g>
<g>
</g>
<g>
</g>
<g>
</g>
<g>
</g>
<g>
</g>
<g>
</g>
<g>
</g>
<g>
</g>
</svg>
