<?xml version="1.0" encoding="iso-8859-1"?>
<!-- Generator: Adobe Illustrator 18.0.0, SVG Export Plug-In . SVG Version: 6.00 Build 0)  -->
<!DOCTYPE svg PUBLIC "-//W3C//DTD SVG 1.1//EN" "http://www.w3.org/Graphics/SVG/1.1/DTD/svg11.dtd">
<svg version="1.1" id="Capa_1" xmlns="http://www.w3.org/2000/svg" xmlns:xlink="http://www.w3.org/1999/xlink" x="0px" y="0px"
	 viewBox="0 0 425.482 425.482" style="enable-background:new 0 0 425.482 425.482;" xml:space="preserve">
<g>
	<path d="M377.75,0H82.029C65.782,0,52.563,13.218,52.563,29.466v26.83c-19.479,3.545-34.298,20.624-34.298,41.11v286.278
		c0,23.047,18.75,41.798,41.798,41.798h43.774c23.047,0,41.798-18.75,41.798-41.798v-5.005h230.507
		c17.134,0,31.074-13.94,31.074-31.074V29.466C407.216,13.218,393.998,0,377.75,0z M138.135,318.902c-4.142,0-7.5,3.358-7.5,7.5
		v1.983h-10.109c-14.433,0-26.271-11.298-27.149-25.514c6.808,5.426,15.419,8.68,24.781,8.68h39.954
		c9.362,0,17.973-3.254,24.781-8.68c-0.878,14.216-12.716,25.514-27.149,25.514h-10.109v-1.983
		C145.635,322.26,142.277,318.902,138.135,318.902z M67.563,339.574c4.277,2.421,9.211,3.81,14.466,3.81h38.497h10.109v20.294
		H83.637c-8.863,0-16.074-7.211-16.074-16.074V339.574z M182.952,271.711c0,13.697-11.143,24.839-24.839,24.839h-39.954
		c-13.696,0-24.839-11.143-24.839-24.839V40.199c0-13.697,11.143-24.839,24.839-24.839h39.954c13.696,0,24.839,11.143,24.839,24.839
		V271.711z M67.563,29.466C67.563,21.489,74.053,15,82.029,15h5.298c-5.626,6.871-9.008,15.647-9.008,25.199v260.979
		c0,10.36,3.758,19.854,9.975,27.207h-6.265c-7.977,0-14.466-6.489-14.466-14.466V29.466z M130.635,383.684
		c0,14.776-12.021,26.798-26.798,26.798H60.063c-14.776,0-26.798-12.021-26.798-26.798V97.406c0-12.173,8.162-22.469,19.298-25.722
		v275.921c0,17.134,13.939,31.074,31.074,31.074h46.998V383.684z M376.143,363.679H145.635v-20.294h10.109H377.75
		c5.255,0,10.189-1.389,14.466-3.81v8.031C392.216,356.469,385.006,363.679,376.143,363.679z M392.216,313.919
		c0,7.977-6.489,14.466-14.466,14.466H187.977c6.216-7.353,9.975-16.847,9.975-27.207V40.199c0-9.553-3.382-18.329-9.009-25.199
		H377.75c7.977,0,14.466,6.489,14.466,14.466V313.919z"/>
	<path d="M224.608,108.364H365.56c4.142,0,7.5-3.358,7.5-7.5V52.573c0-4.142-3.358-7.5-7.5-7.5H224.608c-4.142,0-7.5,3.358-7.5,7.5
		v48.292C217.108,105.006,220.466,108.364,224.608,108.364z M284.883,93.364l19.236-33.292h15.837l-19.236,33.292H284.883z
		 M358.06,93.364h-40.015l19.236-33.292h20.778V93.364z M232.108,60.073h54.687l-19.236,33.292h-35.451V60.073z"/>
	<path d="M252.511,130.854h-32.075c-4.142,0-7.5,3.358-7.5,7.5v32.075c0,4.142,3.358,7.5,7.5,7.5h32.075c4.142,0,7.5-3.358,7.5-7.5
		v-32.075C260.011,134.212,256.653,130.854,252.511,130.854z M245.011,162.929h-17.075v-17.075h17.075V162.929z"/>
	<path d="M311.122,130.854h-32.075c-4.142,0-7.5,3.358-7.5,7.5v32.075c0,4.142,3.358,7.5,7.5,7.5h32.075c4.142,0,7.5-3.358,7.5-7.5
		v-32.075C318.622,134.212,315.264,130.854,311.122,130.854z M303.622,162.929h-17.075v-17.075h17.075V162.929z"/>
	<path d="M369.731,130.854h-32.075c-4.142,0-7.5,3.358-7.5,7.5v32.075c0,4.142,3.358,7.5,7.5,7.5h32.075c4.142,0,7.5-3.358,7.5-7.5
		v-32.075C377.231,134.212,373.874,130.854,369.731,130.854z M362.231,162.929h-17.075v-17.075h17.075V162.929z"/>
	<path d="M252.511,189.88h-32.075c-4.142,0-7.5,3.358-7.5,7.5v32.075c0,4.142,3.358,7.5,7.5,7.5h32.075c4.142,0,7.5-3.358,7.5-7.5
		V197.38C260.011,193.238,256.653,189.88,252.511,189.88z M245.011,221.956h-17.075V204.88h17.075V221.956z"/>
	<path d="M311.122,189.88h-32.075c-4.142,0-7.5,3.358-7.5,7.5v32.075c0,4.142,3.358,7.5,7.5,7.5h32.075c4.142,0,7.5-3.358,7.5-7.5
		V197.38C318.622,193.238,315.264,189.88,311.122,189.88z M303.622,221.956h-17.075V204.88h17.075V221.956z"/>
	<path d="M369.731,189.88h-32.075c-4.142,0-7.5,3.358-7.5,7.5v32.075c0,4.142,3.358,7.5,7.5,7.5h32.075c4.142,0,7.5-3.358,7.5-7.5
		V197.38C377.231,193.238,373.874,189.88,369.731,189.88z M362.231,221.956h-17.075V204.88h17.075V221.956z"/>
	<path d="M252.511,248.907h-32.075c-4.142,0-7.5,3.358-7.5,7.5v32.075c0,4.142,3.358,7.5,7.5,7.5h32.075c4.142,0,7.5-3.358,7.5-7.5
		v-32.075C260.011,252.265,256.653,248.907,252.511,248.907z M245.011,280.982h-17.075v-17.075h17.075V280.982z"/>
	<path d="M311.122,248.907h-32.075c-4.142,0-7.5,3.358-7.5,7.5v32.075c0,4.142,3.358,7.5,7.5,7.5h32.075c4.142,0,7.5-3.358,7.5-7.5
		v-32.075C318.622,252.265,315.264,248.907,311.122,248.907z M303.622,280.982h-17.075v-17.075h17.075V280.982z"/>
	<path d="M369.731,248.907h-32.075c-4.142,0-7.5,3.358-7.5,7.5v32.075c0,4.142,3.358,7.5,7.5,7.5h32.075c4.142,0,7.5-3.358,7.5-7.5
		v-32.075C377.231,252.265,373.874,248.907,369.731,248.907z M362.231,280.982h-17.075v-17.075h17.075V280.982z"/>
</g>
<g>
</g>
<g>
</g>
<g>
</g>
<g>
</g>
<g>
</g>
<g>
</g>
<g>
</g>
<g>
</g>
<g>
</g>
<g>
</g>
<g>
</g>
<g>
</g>
<g>
</g>
<g>
</g>
<g>
</g>
</svg>
