<?xml version="1.0" encoding="iso-8859-1"?>
<!-- Generator: Adobe Illustrator 18.0.0, SVG Export Plug-In . SVG Version: 6.00 Build 0)  -->
<!DOCTYPE svg PUBLIC "-//W3C//DTD SVG 1.1//EN" "http://www.w3.org/Graphics/SVG/1.1/DTD/svg11.dtd">
<svg version="1.1" id="Capa_1" xmlns="http://www.w3.org/2000/svg" xmlns:xlink="http://www.w3.org/1999/xlink" x="0px" y="0px"
	 viewBox="0 0 463 463" style="enable-background:new 0 0 463 463;" xml:space="preserve">
<g>
	<path d="M455.5,320h-42.357c-3.416-14.872-16.75-26-32.643-26s-29.227,11.128-32.643,26H244.5v-39H350c4.142,0,7.5-3.358,7.5-7.5
		v-164c0-4.142-3.358-7.5-7.5-7.5H124c-4.142,0-7.5,3.358-7.5,7.5v164c0,4.142,3.358,7.5,7.5,7.5h105.5v39H115.143
		c-3.416-14.872-16.75-26-32.643-26s-29.227,11.128-32.643,26H7.5c-4.142,0-7.5,3.358-7.5,7.5s3.358,7.5,7.5,7.5h42.357
		c3.416,14.872,16.75,26,32.643,26s29.227-11.128,32.643-26h232.714c3.416,14.872,16.75,26,32.643,26s29.227-11.128,32.643-26H455.5
		c4.142,0,7.5-3.358,7.5-7.5S459.642,320,455.5,320z M131.5,117h211v149h-211V117z M82.5,346c-10.201,0-18.5-8.299-18.5-18.5
		S72.299,309,82.5,309s18.5,8.299,18.5,18.5S92.701,346,82.5,346z M380.5,346c-10.201,0-18.5-8.299-18.5-18.5s8.299-18.5,18.5-18.5
		s18.5,8.299,18.5,18.5S390.701,346,380.5,346z"/>
	<path d="M307,147.5H167c-4.142,0-7.5,3.358-7.5,7.5s3.358,7.5,7.5,7.5h140c4.142,0,7.5-3.358,7.5-7.5S311.142,147.5,307,147.5z"/>
	<path d="M307,183.5H167c-4.142,0-7.5,3.358-7.5,7.5s3.358,7.5,7.5,7.5h140c4.142,0,7.5-3.358,7.5-7.5S311.142,183.5,307,183.5z"/>
	<path d="M307,219.5H167c-4.142,0-7.5,3.358-7.5,7.5s3.358,7.5,7.5,7.5h140c4.142,0,7.5-3.358,7.5-7.5S311.142,219.5,307,219.5z"/>
</g>
<g>
</g>
<g>
</g>
<g>
</g>
<g>
</g>
<g>
</g>
<g>
</g>
<g>
</g>
<g>
</g>
<g>
</g>
<g>
</g>
<g>
</g>
<g>
</g>
<g>
</g>
<g>
</g>
<g>
</g>
</svg>
