<?xml version="1.0" encoding="iso-8859-1"?>
<!-- Generator: Adobe Illustrator 18.0.0, SVG Export Plug-In . SVG Version: 6.00 Build 0)  -->
<!DOCTYPE svg PUBLIC "-//W3C//DTD SVG 1.1//EN" "http://www.w3.org/Graphics/SVG/1.1/DTD/svg11.dtd">
<svg version="1.1" id="Capa_1" xmlns="http://www.w3.org/2000/svg" xmlns:xlink="http://www.w3.org/1999/xlink" x="0px" y="0px"
	 viewBox="0 0 380.345 380.345" style="enable-background:new 0 0 380.345 380.345;" xml:space="preserve">
<g>
	<path d="M155.676,140.321c-0.378-0.913-0.933-1.732-1.62-2.44c-2.243-2.183-5.664-2.831-8.514-1.47
		c-2.638,1.26-4.356,4.002-4.294,6.936c0.139,6.51,8.194,9.629,12.807,5.145C156.138,146.346,156.849,143.106,155.676,140.321
		C155.486,139.861,155.865,140.771,155.676,140.321z"/>
	<path d="M236.884,92.144c-28.576-28.575-75.068-28.575-103.645,0c-11.741,11.742-18.647,26.51-20.74,41.816l-30.246,40.079
		c-1.714,2.271-1.995,5.315-0.727,7.862s3.868,4.156,6.713,4.156h36.845c2.399,3.416,5.104,6.68,8.154,9.731l14.006,14.006
		c11.768,11.768,26.575,18.677,41.918,20.752v18.462c0,4.142,3.357,7.5,7.5,7.5s7.5-3.358,7.5-7.5v-17.98
		c17.034-1.177,33.733-8.241,46.727-21.234l46.519-46.519c2.929-2.929,2.929-7.678,0-10.606L236.884,92.144z M103.296,171.057
		l9.857-13.062c0.859,4.44,2.141,8.813,3.825,13.062H103.296z M240.282,199.187c-11.009,11.009-25.646,17.072-41.215,17.072
		s-30.206-6.063-41.215-17.072l-14.006-14.006c-22.727-22.726-22.727-59.705,0-82.431c11.362-11.363,26.289-17.044,41.215-17.044
		s29.853,5.682,41.215,17.044l55.222,55.221L240.282,199.187z"/>
	<path d="M308.052,0H72.294C49.612,0,31.157,18.454,31.157,41.136v235.758c0,22.682,18.454,41.136,41.137,41.136h120.329
		l32.595,58.467c1.324,2.375,3.831,3.848,6.551,3.848s5.227-1.473,6.551-3.848l32.595-58.467h37.138
		c22.683,0,41.136-18.454,41.136-41.136V41.136C349.188,18.454,330.735,0,308.052,0z M334.188,276.895
		c0,14.411-11.725,26.136-26.136,26.136h-41.543c-2.72,0-5.227,1.472-6.551,3.848l-28.189,50.564l-28.189-50.564
		c-1.324-2.376-3.831-3.848-6.551-3.848H72.294c-14.412,0-26.137-11.725-26.137-26.136V41.136C46.157,26.725,57.882,15,72.294,15
		h235.758c14.411,0,26.136,11.725,26.136,26.136V276.895z"/>
</g>
<g>
</g>
<g>
</g>
<g>
</g>
<g>
</g>
<g>
</g>
<g>
</g>
<g>
</g>
<g>
</g>
<g>
</g>
<g>
</g>
<g>
</g>
<g>
</g>
<g>
</g>
<g>
</g>
<g>
</g>
</svg>
