<?xml version="1.0" encoding="iso-8859-1"?>
<!-- Generator: Adobe Illustrator 18.0.0, SVG Export Plug-In . SVG Version: 6.00 Build 0)  -->
<!DOCTYPE svg PUBLIC "-//W3C//DTD SVG 1.1//EN" "http://www.w3.org/Graphics/SVG/1.1/DTD/svg11.dtd">
<svg version="1.1" id="Capa_1" xmlns="http://www.w3.org/2000/svg" xmlns:xlink="http://www.w3.org/1999/xlink" x="0px" y="0px"
	 viewBox="0 0 399.646 399.646" style="enable-background:new 0 0 399.646 399.646;" xml:space="preserve">
<g>
	<path d="M354.176,154.352C354.176,69.242,284.933,0,199.823,0C114.713,0,45.471,69.242,45.471,154.352
		c0,82.595,65.212,150.241,146.853,154.167v25.904h-19.532c-30.603,0-55.5,24.897-55.5,55.5v2.223c0,4.142,3.358,7.5,7.5,7.5
		h150.063c4.142,0,7.5-3.358,7.5-7.5v-2.223c0-30.603-24.897-55.5-55.5-55.5h-19.531v-25.904
		C288.963,304.594,354.176,236.947,354.176,154.352z M267.012,384.646H132.635c2.594-19.848,19.614-35.223,40.157-35.223h54.063
		C247.398,349.423,264.418,364.799,267.012,384.646z M338.972,146.852h-83.795c-3.346-24.816-23.035-44.506-47.851-47.853V64.462
		c21.503-2.922,39.477-18.221,45.869-38.829C301.436,45.71,336.056,92.141,338.972,146.852z M199.823,113.48
		c22.537,0,40.872,18.335,40.872,40.872c0,22.537-18.335,40.872-40.872,40.872c-22.537,0-40.872-18.335-40.872-40.872
		C158.951,131.815,177.286,113.48,199.823,113.48z M239.044,20.628c-5.024,17.095-20.91,29.345-39.217,29.345
		c-18.314,0-34.2-12.251-39.218-29.347C173.053,16.97,186.212,15,199.823,15C213.437,15,226.597,16.971,239.044,20.628z
		 M146.456,25.631c6.387,20.609,24.36,35.909,45.87,38.831v34.536c-24.818,3.345-44.511,23.036-47.857,47.854H60.674
		C63.59,92.139,98.213,45.707,146.456,25.631z M60.674,161.852h83.795c3.677,27.272,27.091,48.372,55.354,48.372
		c28.263,0,51.677-21.1,55.354-48.372h83.795c-3.91,73.365-64.826,131.852-139.149,131.852
		C125.5,293.704,64.584,235.217,60.674,161.852z"/>
	<path d="M199.823,138.563c8.707,0,15.79,7.083,15.79,15.79c0,4.142,3.358,7.5,7.5,7.5s7.5-3.358,7.5-7.5
		c0-16.978-13.812-30.79-30.79-30.79c-4.142,0-7.5,3.358-7.5,7.5S195.681,138.563,199.823,138.563z"/>
</g>
<g>
</g>
<g>
</g>
<g>
</g>
<g>
</g>
<g>
</g>
<g>
</g>
<g>
</g>
<g>
</g>
<g>
</g>
<g>
</g>
<g>
</g>
<g>
</g>
<g>
</g>
<g>
</g>
<g>
</g>
</svg>
