<?xml version="1.0" encoding="iso-8859-1"?>
<!-- Generator: Adobe Illustrator 19.0.0, SVG Export Plug-In . SVG Version: 6.00 Build 0)  -->
<svg version="1.1" id="Capa_1" xmlns="http://www.w3.org/2000/svg" xmlns:xlink="http://www.w3.org/1999/xlink" x="0px" y="0px"
	 viewBox="0 0 415.998 415.998" style="enable-background:new 0 0 415.998 415.998;" xml:space="preserve">
<g>
	<g>
		<circle cx="208.239" cy="48" r="12"/>
	</g>
</g>
<g>
	<g>
		<path d="M367.998,95.999c0-17.673-14.326-32-31.999-32h-44.424c-5.926-6.583-13.538-11.62-22.284-14.136
			c-7.367-2.118-13.037-7.788-15.156-15.155C248.37,14.663,229.897,0,207.998,0c-21.898,0-40.37,14.663-46.134,34.706
			c-2.122,7.376-7.806,13.039-15.182,15.164c-8.736,2.518-16.341,7.55-22.262,14.129H79.999c-17.674,0-32,14.327-32,32v287.999
			c0,17.673,14.326,32,32,32c73.466,0,163.758,0,256,0c17.674,0,32-14.327,32-32C367.999,293.119,367.998,206.096,367.998,95.999z
			 M128,95.742c0.11-14.066,9.614-26.606,23.112-30.496c12.71-3.662,22.477-13.426,26.127-26.116
			C181.157,25.51,193.805,16,207.998,16c14.194,0,26.842,9.51,30.758,23.13c3.652,12.698,13.413,22.459,26.111,26.11
			c13.618,3.917,23.13,16.566,23.13,30.758v16H128V95.742z M335.999,399.998c-85.455,0-170.77,0-256,0c-8.823,0-16-7.178-16-16
			V95.999c0-8.822,7.177-16,16-16h34.742c-1.73,4.892-2.698,10.143-2.74,15.617v32.383h191.998v-32c0-5.615-0.992-10.991-2.764-16
			h34.764c8.822,0,15.999,7.178,15.999,16c0,45.743-0.001,260.254,0.002,287.999C351.999,392.82,344.822,399.998,335.999,399.998z"
			/>
	</g>
</g>
<g>
	<g>
		<path d="M280,168.002c-17.672,0-32,14.328-32,32s14.328,32,32,32s32-14.328,32-32S297.672,168.002,280,168.002z M280,216.002
			c-8.822,0-16-7.178-16-16s7.178-16,16-16s16,7.178,16,16S288.822,216.002,280,216.002z"/>
	</g>
</g>
<g>
	<g>
		<polygon points="157.651,224.666 146.34,213.354 127.996,231.698 109.651,213.354 98.34,224.666 116.684,243.01 98.34,261.354 
			109.651,272.666 127.996,254.322 146.34,272.666 157.651,261.354 139.308,243.01 		"/>
	</g>
</g>
<g>
	<g>
		<rect x="191.999" y="256" width="16" height="16"/>
	</g>
</g>
<g>
	<g>
		<rect x="191.999" y="224" width="16" height="16"/>
	</g>
</g>
<g>
	<g>
		<polygon points="200,160.002 168,200.002 192,200.002 192,208.002 208,208.002 208,200.002 232,200.002 		"/>
	</g>
</g>
<g>
	<g>
		<path d="M280,248.002l-32,40h24v3.183c0,24.712-20.103,44.817-44.817,44.817h-39.031C200.311,324.874,208,308.93,208,291.185
			v-3.183h-16v3.183c0,20.831-14.311,38.291-33.606,43.286c-4.076-12.986-16.065-22.47-30.394-22.47c-17.672,0-32,14.328-32,32
			s14.328,32,32,32c14.893,0,27.299-10.222,30.868-24h68.315c33.536,0,60.817-27.28,60.817-60.817v-3.183h24L280,248.002z
			 M128,360.002c-8.822,0-16-7.178-16-16s7.178-16,16-16s16,7.178,16,16S136.822,360.002,128,360.002z"/>
	</g>
</g>
<g>
</g>
<g>
</g>
<g>
</g>
<g>
</g>
<g>
</g>
<g>
</g>
<g>
</g>
<g>
</g>
<g>
</g>
<g>
</g>
<g>
</g>
<g>
</g>
<g>
</g>
<g>
</g>
<g>
</g>
</svg>
