<?xml version="1.0" encoding="iso-8859-1"?>
<!-- Generator: Adobe Illustrator 19.0.0, SVG Export Plug-In . SVG Version: 6.00 Build 0)  -->
<svg version="1.1" id="Capa_1" xmlns="http://www.w3.org/2000/svg" xmlns:xlink="http://www.w3.org/1999/xlink" x="0px" y="0px"
	 viewBox="0 0 470.626 470.626" style="enable-background:new 0 0 470.626 470.626;" xml:space="preserve">
<g>
	<g>
		<path d="M235.312,159.998c-44.182,0-80,35.818-80,80c0,17.89,6.078,34.236,16,47.561v0.439v182.627
			c33.544-33.544,25.654-25.654,64-63.999c38.339,38.338,30.482,30.481,64,63.999V287.998v-0.439c9.922-13.324,16-29.671,16-47.561
			C315.312,195.815,279.495,159.998,235.312,159.998z M283.312,431.998l-48-48l-48,48V303.636
			c13.402,10.129,29.906,16.362,48,16.362s34.598-6.234,48-16.362V431.998z M235.312,303.998c-35.29,0-64-28.71-64-64
			s28.71-64,64-64s64,28.71,64,64S270.603,303.998,235.312,303.998z"/>
	</g>
</g>
<g>
	<g>
		<polygon points="279.328,223.982 245.696,223.966 235.312,191.998 224.928,223.966 191.296,223.982 218.496,243.742 
			208.112,275.71 235.312,255.95 262.512,275.71 252.129,243.742 		"/>
	</g>
</g>
<g>
	<g>
		<circle cx="235.552" cy="63.992" r="12"/>
	</g>
</g>
<g>
	<g>
		<path d="M395.311,95.999c0-17.673-14.326-32-31.999-32h-44.424c-5.926-6.583-13.538-11.62-22.284-14.136
			c-7.367-2.118-13.037-7.788-15.156-15.155C275.684,14.663,257.21,0,235.312,0c-21.898,0-40.37,14.663-46.134,34.706
			c-2.122,7.376-7.806,13.039-15.182,15.164c-8.736,2.518-16.341,7.55-22.262,14.129h-44.422c-17.674,0-32,14.327-32,32v287.999
			c0,17.673,14.326,32,32,32c22.367,0,22.934,0,48,0v-16c-23.818,0-24.195,0-48,0c-8.823,0-16-7.178-16-16V95.999
			c0-8.822,7.177-16,16-16h34.742c-1.73,4.892-2.698,10.143-2.74,15.617v32.383h191.998v-32c0-5.615-0.992-10.991-2.764-16h34.764
			c8.822,0,15.999,7.178,15.999,16c0,45.743-0.001,260.254,0.002,287.999c0,8.822-7.177,16-16,16c-24.368,0-23.654,0-48,0v16
			c24.018,0,23.423,0,48,0c17.674,0,32-14.327,32-32C395.312,293.119,395.312,206.096,395.311,95.999z M155.313,111.999V95.742
			c0.11-14.066,9.614-26.606,23.112-30.496c12.71-3.662,22.477-13.426,26.127-26.116C208.47,25.51,221.118,16,235.312,16
			c14.194,0,26.842,9.51,30.758,23.13c3.652,12.698,13.413,22.459,26.111,26.11c13.618,3.917,23.13,16.566,23.13,30.758v16.001
			H155.313z"/>
	</g>
</g>
<g>
</g>
<g>
</g>
<g>
</g>
<g>
</g>
<g>
</g>
<g>
</g>
<g>
</g>
<g>
</g>
<g>
</g>
<g>
</g>
<g>
</g>
<g>
</g>
<g>
</g>
<g>
</g>
<g>
</g>
</svg>
