<?xml version="1.0" encoding="iso-8859-1"?>
<!-- Generator: Adobe Illustrator 19.0.0, SVG Export Plug-In . SVG Version: 6.00 Build 0)  -->
<svg version="1.1" id="Capa_1" xmlns="http://www.w3.org/2000/svg" xmlns:xlink="http://www.w3.org/1999/xlink" x="0px" y="0px"
	 viewBox="0 0 415.998 415.998" style="enable-background:new 0 0 415.998 415.998;" xml:space="preserve">
<g>
	<g>
		<circle cx="208.239" cy="48" r="12"/>
	</g>
</g>
<g>
	<g>
		<path d="M367.997,95.998c0-17.672-14.326-32-31.999-32h-44.424c-5.926-6.582-13.538-11.619-22.284-14.134
			c-7.367-2.119-13.037-7.787-15.156-15.154C248.37,14.662,229.896,0,207.998,0c-21.898,0-40.37,14.662-46.134,34.705
			c-2.122,7.377-7.806,13.039-15.182,15.164c-8.736,2.519-16.341,7.55-22.262,14.129H79.999c-17.674,0-32,14.328-32,32v288
			c0,17.672,14.326,32,32,32c73.466,0,163.758,0,256,0c17.674,0,32-14.328,32-32C367.999,293.119,367.998,206.096,367.997,95.998z
			 M128,95.74c0.11-14.066,9.614-26.606,23.112-30.496c12.71-3.66,22.477-13.426,26.127-26.115C181.156,25.51,193.804,16,207.998,16
			c14.194,0,26.842,9.51,30.758,23.131c3.652,12.698,13.413,22.457,26.111,26.11c13.618,3.918,23.13,16.566,23.13,30.758v16H128
			V95.74z M335.999,399.998c-85.455,0-170.77,0-256,0c-8.823,0-16-7.178-16-16v-288c0-8.82,7.177-16,16-16h34.742
			c-1.73,4.893-2.698,10.145-2.74,15.617v32.383h191.998v-32c0-5.614-0.992-10.99-2.764-16h34.764c8.822,0,15.999,7.18,15.999,16
			c0,45.744-0.001,260.254,0.002,288C351.999,392.82,344.822,399.998,335.999,399.998z"/>
	</g>
</g>
<g>
	<g>
		<path d="M216,168.002v80h80C296,203.818,260.182,168.002,216,168.002z M232,186.027c22.457,5.801,40.174,23.518,45.975,45.974H232
			V186.027z"/>
	</g>
</g>
<g>
	<g>
		<path d="M271.193,264.002H200v-71.194c-2.67-0.27-5.26-0.806-8-0.806c-44.182,0-80,35.817-80,80c0,44.183,35.818,80,80,80
			c44.182,0,80-35.817,80-80C272,269.262,271.463,266.671,271.193,264.002z M184,335.194v0.31c-31.527-3.95-56-30.922-56-63.502
			c0-32.58,24.473-59.553,56-63.502V335.194z M200,335.194v-55.191h55.191C251.539,308.838,228.836,331.541,200,335.194z"/>
	</g>
</g>
<g>
</g>
<g>
</g>
<g>
</g>
<g>
</g>
<g>
</g>
<g>
</g>
<g>
</g>
<g>
</g>
<g>
</g>
<g>
</g>
<g>
</g>
<g>
</g>
<g>
</g>
<g>
</g>
<g>
</g>
</svg>
