<?xml version="1.0" encoding="iso-8859-1"?>
<!-- Generator: Adobe Illustrator 19.0.0, SVG Export Plug-In . SVG Version: 6.00 Build 0)  -->
<svg version="1.1" id="Capa_1" xmlns="http://www.w3.org/2000/svg" xmlns:xlink="http://www.w3.org/1999/xlink" x="0px" y="0px"
	 viewBox="0 0 415.998 415.998" style="enable-background:new 0 0 415.998 415.998;" xml:space="preserve">
<g>
	<g>
		<circle cx="208.239" cy="48" r="12"/>
	</g>
</g>
<g>
	<g>
		<path d="M367.998,95.999c0-17.673-14.326-32-31.999-32h-44.424c-5.926-6.583-13.538-11.62-22.284-14.136
			c-7.368-2.118-13.038-7.788-15.156-15.155C248.37,14.664,229.897,0,207.998,0c-21.898,0-40.37,14.663-46.134,34.706
			c-2.122,7.376-7.806,13.039-15.182,15.165c-8.736,2.518-16.341,7.55-22.262,14.128H79.999c-17.674,0-32,14.327-32,32v287.999
			c0,17.673,14.326,32,32,32c73.466,0,163.758,0,256,0c17.674,0,32-14.327,32-32C367.999,293.119,367.998,206.096,367.998,95.999z
			 M128,95.742c0.11-14.066,9.614-26.606,23.112-30.496c12.71-3.662,22.477-13.426,26.127-26.116
			C181.157,25.51,193.805,16,207.998,16c14.194,0,26.842,9.51,30.758,23.13c3.652,12.698,13.413,22.459,26.11,26.11
			c13.619,3.917,23.131,16.566,23.131,30.758v16H128V95.742z M335.999,399.998c-85.455,0-170.77,0-256,0c-8.823,0-16-7.178-16-16
			V95.999c0-8.822,7.177-16,16-16h34.742c-1.73,4.892-2.698,10.143-2.74,15.617v32.383h191.998v-32c0-5.615-0.992-10.991-2.764-16
			h34.764c8.822,0,15.999,7.178,15.999,16c0,45.743-0.001,260.254,0.002,287.999C351.999,392.82,344.822,399.998,335.999,399.998z"
			/>
	</g>
</g>
<g>
	<g>
		<circle cx="151.999" cy="328" r="8"/>
	</g>
</g>
<g>
	<g>
		<circle cx="263.999" cy="328" r="8"/>
	</g>
</g>
<g>
	<g>
		<circle cx="207.999" cy="328" r="8"/>
	</g>
</g>
<g>
	<g>
		<path d="M111.998,176v16c4.611,0,8.994,3.81,13.3,9.59c2.687-5.005,5.504-9.926,8.589-14.538
			C127.721,180.358,120.72,176,111.998,176z"/>
	</g>
</g>
<g>
	<g>
		<path d="M283.29,222.061c-0.765-1.519-1.526-3.003-2.287-4.506C288.49,203.383,295.89,192,303.998,192v-16
			c-20.119,0-31.375,22.373-43.292,46.061c-5.276,10.487-14.854,29.526-20.708,33.55c-5.854-4.023-15.432-23.062-20.707-33.55
			c-0.765-1.519-1.526-3.003-2.287-4.507C224.492,203.376,231.888,192,239.998,192c4.611,0,8.996,3.81,13.302,9.592
			c2.686-5.005,5.504-9.929,8.588-14.54C255.722,180.358,248.72,176,239.998,176c-20.118,0-31.374,22.373-43.291,46.061
			c-5.276,10.486-14.854,29.525-20.709,33.55c-5.854-4.026-15.433-23.063-20.708-33.55c-0.765-1.519-1.526-3.003-2.287-4.506
			C160.487,203.386,167.892,192,175.998,192c4.611,0,8.996,3.81,13.302,9.592c2.686-5.005,5.503-9.929,8.588-14.54
			C191.722,180.358,184.72,176,175.998,176c-20.119,0-31.375,22.373-43.292,46.061c-5.475,10.883-15.584,30.975-21.354,33.939
			l0.646,16c12.225-0.013,22.394-17.955,32-36.834c9.606,18.879,19.775,36.82,32,36.834c12.225-0.014,22.394-17.956,32.001-36.835
			c9.606,18.879,19.774,36.822,31.999,36.835c12.225-0.013,22.394-17.955,32-36.834c9.61,18.879,19.775,36.82,32,36.834l0.647-16
			C298.874,253.036,288.766,232.943,283.29,222.061z"/>
	</g>
</g>
<g>
</g>
<g>
</g>
<g>
</g>
<g>
</g>
<g>
</g>
<g>
</g>
<g>
</g>
<g>
</g>
<g>
</g>
<g>
</g>
<g>
</g>
<g>
</g>
<g>
</g>
<g>
</g>
<g>
</g>
</svg>
