<?xml version="1.0" encoding="iso-8859-1"?>
<!-- Generator: Adobe Illustrator 19.0.0, SVG Export Plug-In . SVG Version: 6.00 Build 0)  -->
<svg version="1.1" id="Capa_1" xmlns="http://www.w3.org/2000/svg" xmlns:xlink="http://www.w3.org/1999/xlink" x="0px" y="0px"
	 viewBox="0 0 512 512" style="enable-background:new 0 0 512 512;" xml:space="preserve">
<g>
	<g>
		<path d="M414.255,118.691L283.152,2.327C282.376,0.776,280.048,0,278.497,0H7.758C3.103,0,0,3.103,0,7.758v496.485
			C0,508.897,3.103,512,7.758,512h401.067c4.655,0,7.758-3.103,7.758-7.758V124.897C416.582,122.57,415.03,120.242,414.255,118.691z
			 M286.255,24.824l102.4,91.539h-102.4V24.824z M401.067,496.485H15.515V15.515h255.224v109.382c0,4.655,3.103,7.758,7.758,7.758
			h122.57V496.485z"/>
	</g>
</g>
<g>
	<g>
		<path d="M471.661,110.933c-22.497,0-40.339,17.842-40.339,40.339v233.503v2.327l32.582,119.467c0.776,3.103,3.879,5.43,7.758,5.43
			c3.879,0,6.206-2.327,7.758-5.43L512,386.327V384V150.497C512,128.776,494.158,110.933,471.661,110.933z M471.661,474.764
			l-22.497-82.23h44.994L471.661,474.764z M496.485,376.242h-49.648V200.145h49.648V376.242z M496.485,185.406h-49.648v-34.133
			c0-13.964,11.636-24.824,24.824-24.824c13.964,0,24.824,10.861,24.824,24.824V185.406z"/>
	</g>
</g>
<g>
	<g>
		<path d="M232.727,43.442H47.321c-4.655,0-7.758,3.103-7.758,7.758s3.879,7.758,7.758,7.758h185.406
			c4.655,0,7.758-3.103,7.758-7.758S237.382,43.442,232.727,43.442z"/>
	</g>
</g>
<g>
	<g>
		<path d="M232.727,86.109H47.321c-4.655,0-7.758,3.103-7.758,7.758c0,3.879,3.879,7.758,7.758,7.758h185.406
			c4.655,0,7.758-3.103,7.758-7.758C240.485,89.212,237.382,86.109,232.727,86.109z"/>
	</g>
</g>
<g>
	<g>
		<path d="M232.727,128.776H47.321c-4.655,0-7.758,3.103-7.758,7.758s3.879,7.758,7.758,7.758h185.406
			c4.655,0,7.758-3.103,7.758-7.758S237.382,128.776,232.727,128.776z"/>
	</g>
</g>
<g>
	<g>
		<path d="M368.485,184.63H48.097c-4.655,0-7.758,3.103-7.758,7.758v273.067c0,4.655,3.103,7.758,7.758,7.758h320.388
			c4.655,0,7.758-3.103,7.758-7.758V192.388C376.242,188.509,372.364,184.63,368.485,184.63z M124.897,457.697H55.855v-50.424
			h69.042V457.697z M124.897,391.758H55.855v-55.079h69.042V391.758z M124.897,321.164H55.855v-55.079h69.042V321.164z
			 M124.897,250.57H55.855v-50.424h69.042V250.57z M360.727,457.697H140.412v-50.424h220.315V457.697z M360.727,391.758H140.412
			v-55.079h220.315V391.758z M360.727,321.164H140.412v-55.079h220.315V321.164z M360.727,250.57H140.412v-50.424h220.315V250.57z"
			/>
	</g>
</g>
<g>
</g>
<g>
</g>
<g>
</g>
<g>
</g>
<g>
</g>
<g>
</g>
<g>
</g>
<g>
</g>
<g>
</g>
<g>
</g>
<g>
</g>
<g>
</g>
<g>
</g>
<g>
</g>
<g>
</g>
</svg>
