<?xml version="1.0" encoding="iso-8859-1"?>
<!-- Generator: Adobe Illustrator 19.0.0, SVG Export Plug-In . SVG Version: 6.00 Build 0)  -->
<svg version="1.1" id="Capa_1" xmlns="http://www.w3.org/2000/svg" xmlns:xlink="http://www.w3.org/1999/xlink" x="0px" y="0px"
	 viewBox="0 0 512 512" style="enable-background:new 0 0 512 512;" xml:space="preserve">
<g>
	<g>
		<g>
			<path d="M512,127.629C511.591,56.938,453.952-0.037,383.261,0.373C321.366,0.731,268.595,45.327,257.92,106.296h-44.587V63.629
				c0-5.891-4.776-10.667-10.667-10.667H53.333c-5.891,0-10.667,4.776-10.667,10.667v42.667H32c-17.673,0-32,14.327-32,32v245.333
				c0,17.673,14.327,32,32,32h160v26.56c-21.532,7.353-37.431,25.739-41.6,48.107H128v21.333h256v-21.333h-22.4
				c-4.169-22.368-20.068-40.753-41.6-48.107v-26.56h160c17.673,0,32-14.327,32-32V138.296h-0.533
				C512,134.776,512,131.256,512,127.629z M64,74.296h128v85.333h-21.333c-5.891,0-10.667,4.776-10.667,10.667v19.84l-33.707-28.053
				c-1.919-1.59-4.334-2.458-6.827-2.453H64V74.296z M339.627,490.296H172.373c3.733-12.8,15.253-32,51.627-32h32v-21.333h-32
				c-3.733,0-7.253,0-10.667,0v-21.333h85.333v21.333c-3.413,0-6.933,0-10.667,0v21.333
				C324.373,458.296,335.893,477.496,339.627,490.296z M490.667,383.629c0,5.891-4.776,10.667-10.667,10.667H32
				c-5.891,0-10.667-4.776-10.667-10.667v-21.333h469.333V383.629z M490.667,340.963H21.333V138.296
				c0-5.891,4.776-10.667,10.667-10.667h10.667v42.667c0,5.891,4.776,10.667,10.667,10.667h62.293l48.213,40.213
				c4.526,3.77,11.252,3.157,15.023-1.369c1.6-1.921,2.475-4.344,2.471-6.844v-32h21.333c5.891,0,10.667-4.776,10.667-10.667
				v-42.667H256c0.078,70.692,57.449,127.937,128.141,127.859c42.852-0.047,82.838-21.535,106.526-57.245V340.963z M384,234.296
				c-58.91,0-106.667-47.756-106.667-106.667S325.09,20.963,384,20.963s106.667,47.756,106.667,106.667S442.91,234.296,384,234.296z
				"/>
			<path d="M394.667,42.296h-21.333v21.333H352c-5.891,0-10.667,4.776-10.667,10.667v53.333c0,5.891,4.776,10.667,10.667,10.667
				h53.333v32h-64v21.333h32v21.333h21.333v-21.333H416c5.891,0,10.667-4.776,10.667-10.667v-53.333
				c0-5.891-4.776-10.667-10.667-10.667h-53.333v-32h64V63.629h-32V42.296z"/>
			<rect x="42.667" y="255.629" width="170.667" height="21.333"/>
			<rect x="42.667" y="298.296" width="170.667" height="21.333"/>
			<rect x="85.333" y="106.296" width="21.333" height="21.333"/>
			<rect x="117.333" y="106.296" width="21.333" height="21.333"/>
			<rect x="149.333" y="106.296" width="21.333" height="21.333"/>
			<path d="M448,298.296h-32v21.333h42.667c5.891,0,10.667-4.776,10.667-10.667v-42.667H448V298.296z"/>
		</g>
	</g>
</g>
<g>
</g>
<g>
</g>
<g>
</g>
<g>
</g>
<g>
</g>
<g>
</g>
<g>
</g>
<g>
</g>
<g>
</g>
<g>
</g>
<g>
</g>
<g>
</g>
<g>
</g>
<g>
</g>
<g>
</g>
</svg>
